<svg xmlns="http://www.w3.org/2000/svg" viewBox="100 95 137.48 255">
	<style>
		svg{
		fill:orange;
		cursor:pointer;
		}
	</style>
	<path d="M185.1,172.84a5.06,5.06,0,1,0-1.46,7A5.06,5.06,0,0,0,185.1,172.84Zm-7,2.43,3.62-2.37.59.9-3.62,2.37Zm2,3.06-.59-.9,3.62-2.37.59.9Z" />
	<path d="M220.51,211.7a5,5,0,1,0-.6,7A5,5,0,0,0,220.51,211.7Zm-4.42,4.16-2-.72,1.63-1.38,1.63-1.38.38,2.1.38,2.1Z" />
	<path d="M204,132.13a3.21,3.21,0,0,1-.72-.08.75.75,0,0,1-.56-.9.74.74,0,0,1,.9-.56,1.94,1.94,0,0,0,2.08-1,4.39,4.39,0,0,0,.26-.8,6.31,6.31,0,0,1,.31-1,2.17,2.17,0,0,1,2.27-1.42.75.75,0,1,1-.29,1.47c-.17,0-.46.22-.6.55a4.94,4.94,0,0,0-.23.74,5.76,5.76,0,0,1-.36,1.07A3.42,3.42,0,0,1,204,132.13Z" />
	<circle cx="169.09" cy="126.96" r="2.29" transform="translate(-6.39 244.92) rotate(-70.81)" />
	<circle cx="115.39" cy="128.42" r="1.46" transform="translate(-43.82 195.19) rotate(-70.81)" />
	<circle cx="239.42" cy="136.94" r="1.46" transform="translate(31.39 318.05) rotate(-70.81)" />
	<path d="M226.68,205a4.66,4.66,0,0,1-1.25-.18,7,7,0,0,1-4.72-5.14,5.52,5.52,0,0,1,1.39-4.8l-1.8-2.19c-3,.58-12,1.27-19.45-8.83a14.6,14.6,0,0,1-3.14-8.63,11.88,11.88,0,0,1,3.09-7.94c3.28-3.72,8.64-5.66,12.76-4.63a17.8,17.8,0,0,1,7.88,4.77,20.47,20.47,0,0,1,5.93,11.61,18.21,18.21,0,0,1-1.29,9.5l1.85,1.72a4.85,4.85,0,0,1,2.49-1.35,4.58,4.58,0,0,1,3.91,1.28c2.3,2,3.35,3.82,3.19,5.56a4,4,0,0,1-2.17,3.09,7.43,7.43,0,0,1-3.62,1,4.49,4.49,0,0,0-.61.06c0,1.05-.23,2.2-1.81,3.93h0A3.45,3.45,0,0,1,226.68,205Zm-5.33-15.74,4.94,6-1.23.95a2.93,2.93,0,0,0-1.41,2.91,4,4,0,0,0,2.59,2.82c.28.08.64.13.83-.07,1-1.15,1-1.57,1-1.94a2.49,2.49,0,0,1,.94-2.22,4,4,0,0,1,2.49-.8,4.46,4.46,0,0,0,2.29-.64c.44-.26.68-.52.7-.77,0-.51-.5-1.57-2.17-3a1.78,1.78,0,0,0-1.41-.59c-.74.13-1.41,1.09-1.53,1.32l-.93,1.7-6-5.63.48-1a15.46,15.46,0,0,0,1.47-8.82,17.45,17.45,0,0,0-5.08-9.89,15,15,0,0,0-6.49-4c-3-.76-7.24.82-9.77,3.7a9,9,0,0,0-2.34,6,11.69,11.69,0,0,0,2.56,6.86c7.72,10.53,17,7.54,17.11,7.51Z" />
	<circle cx="215.94" cy="185.51" r="1.57" transform="translate(-0.14 370.85) rotate(-81.29)" />
	<path d="M210.74,183.86a1,1,0,0,1-.6-.2c-7.36-5.58-5.47-10.91-5.39-11.13a1,1,0,0,1,1.88.69c-.06.19-1.36,4.24,4.72,8.85a1,1,0,0,1-.6,1.8Z" />
	<rect x="244.16" y="207.24" width="1.34" height="5.35" transform="translate(-0.84 0.98) rotate(-0.23)" />
	<rect x="240.96" y="207.25" width="1.34" height="5.35" transform="translate(-0.85 0.98) rotate(-0.23)" />
	<path d="M251.88,209.64l-4.22-2.36a.24.24,0,0,0-.25,0,.25.25,0,0,0-.12.22l.06,4.84a.25.25,0,0,0,.13.21.24.24,0,0,0,.12,0,.24.24,0,0,0,.13,0l4.16-2.48a.25.25,0,0,0,.12-.22A.25.25,0,0,0,251.88,209.64Z" />
	<path d="M189.65,147.56a1.5,1.5,0,0,1-.85-2.74l4.76-3.26a1.5,1.5,0,1,1,1.7,2.48l-4.76,3.26A1.49,1.49,0,0,1,189.65,147.56Z" />
	<path d="M134.84,185.34a1.5,1.5,0,0,1-.85-2.74l16.61-11.37a1.5,1.5,0,0,1,1.7,2.48l-16.61,11.37A1.49,1.49,0,0,1,134.84,185.34Z" />
	<path d="M176.72,160.75a5.76,5.76,0,0,1-1.19-.13,6,6,0,0,1-3.7-2.49h0a5.79,5.79,0,0,1,1.36-8.06,5.53,5.53,0,0,1,4.31-.84,6,6,0,0,1,4.69,6.85,5.52,5.52,0,0,1-5.46,4.68ZM173.48,157a4,4,0,0,0,2.46,1.66,3.53,3.53,0,0,0,4.26-2.92,4,4,0,0,0-3.12-4.56,3.53,3.53,0,0,0-2.77.53,3.79,3.79,0,0,0-.83,5.28Z" />
	<path d="M188,156.48a1.5,1.5,0,0,1-1.24-.65L179.36,145a1.5,1.5,0,1,1,2.48-1.7l7.4,10.81a1.5,1.5,0,0,1-1.24,2.35Z" />
	<path d="M192.73,153.39a1.5,1.5,0,0,1-1.24-.65l-7.4-10.81a1.5,1.5,0,0,1,2.48-1.7L194,151a1.5,1.5,0,0,1-1.24,2.35Z" />
	<path d="M155.16,179.37a1.5,1.5,0,0,1-1.24-.65l-7.4-10.81a1.5,1.5,0,0,1,2.48-1.7l7.4,10.81a1.5,1.5,0,0,1-1.24,2.35Z" />
	<path d="M158.34,175.93a1,1,0,0,1-.83-.44l-6.69-9.77a1,1,0,0,1,.75-1.56l11.81-.91a.94.94,0,0,1,.9.43,1,1,0,0,1,.08,1l-5.12,10.68a1,1,0,0,1-.83.57ZM153.45,166l4.73,6.91,3.62-7.55Z" />
	<path d="M166.08,169a1,1,0,0,1-.83-.44l-5.52-8.07a1,1,0,0,1,.26-1.39l8.07-5.52a1,1,0,0,1,1.39.26L175,161.9a1,1,0,0,1-.26,1.39l-8.07,5.52A1,1,0,0,1,166.08,169ZM162,160.18l4.39,6.41,6.42-4.39-4.39-6.41Z" />
	<path d="M126.27,189.31c-2.19-1.32-5-5.35-7.1-6.75-5.91-3.88-8.2-3.54-13.54-5.51,1.46-2.21.78-2.76.93-5.43,2.09-1.6,5.24.64,7.05,1.78A31.58,31.58,0,0,1,126.27,189.31Z" />
	<path d="M138.19,160.8a5.47,5.47,0,1,0-3.62,6.83A5.47,5.47,0,0,0,138.19,160.8Zm-6.57,4.13-1.19-3.87,3.87-1.19,1.19,3.87Z" />
	<path d="M238.31,235.13a5.07,5.07,0,0,0-1.76-3,20.47,20.47,0,0,0-7.65-4.69,20,20,0,0,0-4.36-.92l-.19,0a16.32,16.32,0,0,0-3-.11c-.69.06-2.41.26-2.84.89s-.41,1.57.58,1.56a18.91,18.91,0,0,1,14.39,7.62,3.4,3.4,0,0,0,2,1.6l.25,0a2.17,2.17,0,0,0,1.61-.61A2.83,2.83,0,0,0,238.31,235.13Z" />
	<path d="M153.74,146.2l-.21,0a1,1,0,0,1-.76-1.19c1.15-5.28,2.05-10.78-.65-14.84-2-3-5.41-4.47-9-6-1.22-.53-2.44-1.06-3.6-1.65-5.82-3-12.5-9.84-13.41-16.78a11.2,11.2,0,0,1,4-10.12A1,1,0,1,1,131.36,97a9.16,9.16,0,0,0-3.31,8.37c.79,6,6.88,12.49,12.33,15.25,1.13.57,2.31,1.09,3.5,1.6,3.73,1.62,7.58,3.29,9.89,6.77,3.14,4.71,2.19,10.67.94,16.38A1,1,0,0,1,153.74,146.2Z" />
	<path d="M215.76,153.21a1,1,0,0,1-1-.88c-.32-2.67,1.9-4.93,4.15-5.69a15.37,15.37,0,0,1,6.14-.4l.47,0c1.83.13,3.94.18,5.58-.7s2.65-2.51,3.84-4.56a1,1,0,1,1,1.73,1c-1.06,1.83-2.38,4.1-4.62,5.31s-4.55,1.08-6.67.94l-.47,0a13.64,13.64,0,0,0-5.35.3c-1.53.52-3,2-2.81,3.57a1,1,0,0,1-.88,1.11Z" />
	<path d="M119.16,149.37a1,1,0,0,1-.58-.19c-1.95-1.39-1.85-4.2-.74-6.26a18.63,18.63,0,0,1,1.22-1.9,10.1,10.1,0,0,0,1.49-2.62,4.69,4.69,0,0,0-2.13-5.33,1,1,0,0,1,1-1.76,6.68,6.68,0,0,1,3.07,7.7,11.78,11.78,0,0,1-1.76,3.16,16.49,16.49,0,0,0-1.09,1.69c-.68,1.27-.82,3,.14,3.69a1,1,0,0,1-.58,1.81Z" />
	<path d="M255.27,187.57a5.44,5.44,0,0,1-2.42-.57,12.94,12.94,0,0,1-2.53-1.83,16.49,16.49,0,0,0-1.55-1.22c-1-.69-2.56-1.09-3.43-.35a1,1,0,0,1-1.3-1.53c1.67-1.42,4.13-.92,5.83.21a17.83,17.83,0,0,1,1.74,1.37,11.31,11.31,0,0,0,2.14,1.56,3,3,0,0,0,2.71.06v0a1.28,1.28,0,0,1,.41-1.44,1.17,1.17,0,0,1,1.39-.09,1.54,1.54,0,0,1,.36,2.12A3.7,3.7,0,0,1,255.27,187.57Z" />
	<path d="M182.75,218.92A65.33,65.33,0,0,1,171,217.79c-10.5-1.93-16.09-6.7-17.58-8.94a2.57,2.57,0,0,1-.57-1.93c.29-1.28,1.21-7.7,1.22-7.76a1,1,0,0,1,1.13-.85,1,1,0,0,1,.85,1.13c0,.27-.94,6.56-1.25,7.91.18.87,5,6.35,16.56,8.47,12.48,2.3,23.74.86,28-3.56.39-.67,1-5.56,1.29-9.67a1,1,0,1,1,2,.14c-.32,4.4-.9,9.86-1.83,10.89C197.54,217.08,190.92,218.92,182.75,218.92Z" />
	<path d="M182.45,213.1a47.64,47.64,0,0,1-8.47-.74c-9.87-1.8-17.21-5.24-19.64-9.19a5.23,5.23,0,0,1-.69-4.3c1.38-4.67,7.22-5.21,11.91-5.64,2-.19,4.84-.45,5.36-1.07,2.95-3.55,11.84-3.2,18.85-1.36,7.51,2,14.44,7.37,13.15,13.87C201.83,210.15,192.35,213.1,182.45,213.1Zm-2.68-20.64c-3.17,0-5.65.55-6.54,1.62-1.31,1.58-4,1.83-7.4,2.15-4,.37-8.5.78-9.31,3.5h0a2.27,2.27,0,0,0,.37,1.87c1.46,2.38,7,5.86,17.62,7.81,12.13,2.22,24.62-1.11,25.46-5.31.92-4.63-5-8.8-11-10.38A37.45,37.45,0,0,0,179.77,192.46Zm-24.69,6.84h0Z" />
	<path d="M205.86,227.66c-.47-3.74-4.68-9.12-8.33-12.76a16.68,16.68,0,0,1-1.93.93c3.5,3.39,7.87,8.79,8.28,12.08.14,1.09-.25,1.47-.37,1.59-3.45,3.43-12.61,7.83-17.41,7.71A52.32,52.32,0,0,0,141,216.87c-3.3-3.88-10.72-13.86-10.19-19.23a3.37,3.37,0,0,1,1.29-2.49c2.27-1.75,5.86-2.55,8.72-3a48.73,48.73,0,0,1,25.46,2.56,27.13,27.13,0,0,0,3.71-.53,11.65,11.65,0,0,0-1.18-.63,51,51,0,0,0-28.32-3.38c-3.29.57-7,1.42-9.61,3.43a5.34,5.34,0,0,0-2.06,3.87c-.75,7.55,10.52,20.57,11,21.12l.33.38.5,0a50.29,50.29,0,0,1,44.06,19.84l.27.4.48,0c.22,0,.45,0,.69,0,5.38,0,15-4.56,18.75-8.29A3.7,3.7,0,0,0,205.86,227.66Z" />
	<path d="M196.59,215.4a19.16,19.16,0,0,1-1.81.74l.22.22L192.16,219l-1.68-1.7a55.85,55.85,0,0,1-19.27-.45c-.6-.11-1.16-.24-1.73-.36l-1.5,3.23-3.53-1.49,1.08-2.84a35,35,0,0,1-3.78-1.5l-.94,3.09-3.71-1,.88-3.76,1.3.35c-3.84-2.28-5.6-4.64-5.42-5.41.23-1,.84-5.13,1.1-7a3.27,3.27,0,0,1,.13-.89,4.33,4.33,0,0,1,1.11-1.85l-1.38-.22.47-3.83,4.19.66-.33,1.74c2.84-.91,6.52-1,9.29-1.36a50,50,0,0,0-27.77-3.31c-3,.51-6.69,1.33-9.17,3.24-6.84,5.28,9.08,23.55,9.08,23.55a50.92,50.92,0,0,1,45,20.29,13,13,0,0,0,3.81-.4l-.83-1.17,3.11-2.29,1.2,1.68-2,1.4c5-1.45,10.8-4.62,13.39-7.2S201.2,219.93,196.59,215.4ZM132.06,201a5.19,5.19,0,0,1-.35-2.77c0-.2.08-1.36.24-1.45l2.07-1.09,1.56,3.53A36.92,36.92,0,0,1,132.06,201Zm7,13.38-2.3-3.51,1.85-.23,1.12,3.75Zm.14-16.4-1-3.73,4.26-.84.52,3.82Zm6.48,16.45-3.85,0-.08-3.86,4.09,0Zm1.1-21.39,4.28,0-.18,3.85-4,0Zm6.57,22.18-3.82-.52.4-3.84,4.06.55Zm21.35,8.2-3.28-2,1.87-3.37,3.52,2.13Zm6.08,4.66-3-2.44,2.35-3.06,3.17,2.62Zm5.35,5.49-2.58-2.84,2.76-2.69,2.76,3ZM194.73,222l3-2.38,2.5,3.5L197,225.2Zm5.31,8.93-1-2.26,3.45-1.72.89,1.92Z" />
	<circle cx="194.44" cy="200.08" r="1.74" transform="translate(-24.83 27.57) rotate(-7.63)" />
	<path d="M180.17,207c-6.14,0-11.19-1.13-15.39-3.45a1.5,1.5,0,0,1,1.45-2.63c4.09,2.25,9.18,3.25,15.52,3,2.6-.08,5.56-.38,7.76-2a1.5,1.5,0,0,1,1.75,2.44c-2.85,2-6.35,2.41-9.41,2.51Z" />
	<path d="M108.78,350.3h9.52a10.44,10.44,0,0,0,3.25-.44,6.22,6.22,0,0,0,2.22-1.22,4.71,4.71,0,0,0,1.28-1.86,6.58,6.58,0,0,0,.41-2.38,5.26,5.26,0,0,0-.83-3.06,5.21,5.21,0,0,0-2.35-1.82,4.84,4.84,0,0,0,2.3-1.75,5.25,5.25,0,0,0,.78-3,6.59,6.59,0,0,0-.41-2.38,4.7,4.7,0,0,0-1.28-1.86,6.05,6.05,0,0,0-2.22-1.21,10.84,10.84,0,0,0-3.25-.43h-9.43a1.56,1.56,0,0,0-1.78,1.75v17.93A1.56,1.56,0,0,0,108.78,350.3Zm1.91-17.36c0-.25.14-.38.41-.38h7.23a3.46,3.46,0,0,1,2.49.76,2.72,2.72,0,0,1,.78,2q0,2.57-3.3,2.57h-7.62Zm0,8.09h7.71q3.3,0,3.3,2.76a2.67,2.67,0,0,1-.79,2.06,3.62,3.62,0,0,1-2.51.73h-7.3c-.28,0-.41-.12-.41-.35Z" />
	<path d="M131.41,348.2a6.48,6.48,0,0,0,2.46,1.54,10.53,10.53,0,0,0,3.63.56H146v-3.74h-8.32a6.66,6.66,0,0,1-2.11-.29,3.55,3.55,0,0,1-1.35-.78,2.69,2.69,0,0,1-.72-1.18,5,5,0,0,1-.21-1.44v-14H129.6v14a9.82,9.82,0,0,0,.43,3A5.86,5.86,0,0,0,131.41,348.2Z" />
	<path d="M175.21,339.25a5.48,5.48,0,0,0,2.14,1.43,9.68,9.68,0,0,0,3.52.54h5a5.14,5.14,0,0,1,1.63.22,2.77,2.77,0,0,1,1,.59,2,2,0,0,1,.54.86,3.16,3.16,0,0,1,.16,1,2.66,2.66,0,0,1-.71,1.92,3,3,0,0,1-2.24.75H174.21v3.74h11.93a9,9,0,0,0,3.12-.48,5.66,5.66,0,0,0,2.11-1.32,5.1,5.1,0,0,0,1.2-2A7.91,7.91,0,0,0,193,344a9.14,9.14,0,0,0-.3-2.29,4.82,4.82,0,0,0-1.11-2,5.87,5.87,0,0,0-2.21-1.44,9.87,9.87,0,0,0-3.59-.56h-5a4.94,4.94,0,0,1-1.55-.21,2.5,2.5,0,0,1-1-.57,2,2,0,0,1-.51-.83,3.05,3.05,0,0,1-.14-.94,2.57,2.57,0,0,1,.67-1.82,2.79,2.79,0,0,1,2.13-.71h11v-3.74H180.5a8.92,8.92,0,0,0-3,.46,5.49,5.49,0,0,0-2.08,1.28,4.92,4.92,0,0,0-1.17,2,7.89,7.89,0,0,0-.37,2.46,8.42,8.42,0,0,0,.3,2.22A5,5,0,0,0,175.21,339.25Z" />
	<path d="M158.89,350.3A10.87,10.87,0,1,0,148,339.43,10.87,10.87,0,0,0,158.89,350.3Zm-3.32-10.87v-4.65l4,2.32,4,2.32-4,2.32-4,2.32Z" />
	<path d="M198.36,350.3H201c.38,0,.56-.22.56-.68v-16c0-.21.07-.31.21-.31H202a.32.32,0,0,1,.33.25l5.2,13.76a9.69,9.69,0,0,0,.63,1.4,4.13,4.13,0,0,0,.69.94,2.11,2.11,0,0,0,.85.52,3.66,3.66,0,0,0,1.12.15H212a3.65,3.65,0,0,0,1.12-.15,2.13,2.13,0,0,0,.85-.52,4.29,4.29,0,0,0,.69-.94,10.3,10.3,0,0,0,.63-1.4l5.2-13.76a.32.32,0,0,1,.33-.25h.23c.14,0,.21.1.21.31v16c0,.45.19.68.56.68h2.62q.59,0,.59-.68V332a4.85,4.85,0,0,0-.46-2.47,2,2,0,0,0-1.8-.72h-2.75a4.28,4.28,0,0,0-1,.09,1.64,1.64,0,0,0-.71.35,2.49,2.49,0,0,0-.55.71,7.88,7.88,0,0,0-.5,1.18L212,345.87a.37.37,0,0,1-.36.28h-.31a.36.36,0,0,1-.36-.28l-5.35-14.74a8.18,8.18,0,0,0-.5-1.18,2.5,2.5,0,0,0-.55-.71,1.68,1.68,0,0,0-.72-.35,4.48,4.48,0,0,0-1-.09h-2.8a2,2,0,0,0-1.82.72,4.81,4.81,0,0,0-.47,2.47v17.63Q197.76,350.3,198.36,350.3Z" />
	<rect x="106.09" y="380.02" width="120.7" height="1.01" />
	<path d="M138.27,144.93a.75.75,0,0,1-.59-.28l-1.81-2.26a.75.75,0,1,1,1.17-.94l1.81,2.26a.75.75,0,0,1-.59,1.22Z" />
	<path d="M232.19,165.76a.75.75,0,0,1,0-1.5l3.09-.14a.83.83,0,0,1,.78.72.75.75,0,0,1-.72.78l-3.09.14Z" />
	<polygon points="183.68 368.06 186.56 368.06 185.11 364.24 183.68 368.06" />
	<path d="M168.46,364.07h-1.59v5.54h1.57a2.63,2.63,0,0,0,2.75-2.77A2.59,2.59,0,0,0,168.46,364.07Z" />
	<path d="M106.09,357.94v18.58H226.83V357.94ZM152,370.84h-1.4v-6.18l-2.45,6.18h-.6l-2.46-6.18v6.18h-1.4v-8h2l2.19,5.5,2.17-5.5h2Zm9.6-6.77h-4.08v2.06h4v1.24h-4v2.24h4.08v1.24h-5.49v-8h5.49Zm6.84,6.77h-3v-8h3a4,4,0,1,1,0,8Zm9.35,0h-1.4v-8h1.4Zm9.73,0L187,369.3h-3.67l-.59,1.55h-1.6l3.15-8H186l3.15,8Z" />
	<path d="M128.53,303.46c-3.63,0-7.76-1.22-12.06-4.77-8.5-7-6.11-17.74-4-27.2.35-1.57.69-3.1,1-4.56,1.13-5.94,2.21-11.9,3.29-17.85l1.6-8.8c.83-4.54,1.81-9.18,2.75-13.67a277.16,277.16,0,0,0,4.82-27.5,1,1,0,0,1,1.09-.89,1,1,0,0,1,.9,1.09s-.39,4.6,3.62,11.32c3.77,6.33,12.28,15.9,31.4,25.49.22.11,22.21,10.76,38.11-.54a1,1,0,0,1,1.29,1.52L142,297.74C141.89,297.81,136.36,303.46,128.53,303.46Zm-1.5-97.6c-1.06,7.1-2.55,14.22-4,21.16-.94,4.48-1.91,9.11-2.74,13.62l-1.6,8.79c-1.08,6-2.16,11.92-3.29,17.86-.28,1.49-.63,3-1,4.63-2,8.9-4.23,19,3.33,25.22,12.14,10,22.36-.36,22.79-.8L196,240.53c-15.71,6.27-33.22-2.22-34.05-2.63C137.53,225.63,129.58,213.24,127,205.86Z" />
	<path d="M201.58,236.39c-16.59,11.78-39.14.61-39.14.61-37.56-18.84-35.56-37.79-35.56-37.8-1,9.9-3.21,19.86-5.28,29.73l1.09-1.34,1.27,2.19-2.9,1.8c-.61,3-1.21,5.93-1.75,8.87l2.14,2.12-2.85,2,0-.15-2.09,11.43,1.92,2.35-2.66,2.29-.07-.27c-.4,2.17-.79,4.34-1.2,6.5l.48-1.09,1.86,2-2.9,1.84c-.94,4.35-2.14,9.09-2.38,13.64l.84-1.51,1.54,2.13-2.42,1.43c.08,4.77,1.46,9.22,5.62,12.66,7.46,6.16,14.29,5,18.77,2.83L136,298l2.89.38-.66,1.09a18.43,18.43,0,0,0,3-2.39l7.72-7.76-.42.19.18-3.5,3.19.35h0l4.5-4.52-1.65.62.37-3.49,3.3.23-.9,1.52,9.07-9.12-.86.49.31-3.49,2.55.19-2,2.81,8.6-8.65-.76.28.42-3.48,2.52.28-2.18,2.93,12.93-13-.07-3.49,2.94-.1-.73,1.45Zm-33.81,7.29,3.3.89-.83,3.41-3.47-.94Zm3.45,15.49-.57,3.46-3.69-.69.72-3.43Zm-9.89-17.77,3.19,1.23-1.17,3.3L160,244.64Zm-.62,15.33,3.46,1-.87,3.4-3.62-1Zm-5.56-18.25,3.05,1.53-1.5,3.17-3.21-1.61ZM154,254.29l3.35,1.3-1.19,3.3-3.51-1.36ZM149.27,235l2.9,1.81-1.79,3-3-1.9Zm1.4,17.85L149.17,256l-3.35-1.7,1.67-3.08Zm-7-21.86,2.74,2.07-2.05,2.84-2.86-2.16Zm.66,18.45-1.83,3-3.16-2,2-2.89Zm-5.86-22.91,2.56,2.29-2.28,2.66-2.66-2.38Zm0,18.87-2.13,2.78-2.93-2.37,2.28-2.67ZM136,224.12l-2.49,2.47L131.09,224l2.59-2.37Zm-3,16.61-2.42,2.54L128,240.59l2.56-2.4Zm-1.62-21.67-2.68,2.26-2.25-2.78,2.77-2.15Zm-6.15-5.12.51-2.49,1.47,2.21-2.14,2.5Zm.68,18.77,2.2,2.8-2.69,2.25-2.33-3Zm-2.35,12.65,2.32,2.67-2.58,2.37-2.45-2.82Zm23.94,22.2L144.12,266l1.53-3.16,3.23,1.45Zm4.33,10.89-.6,3.46-3.46-.73.84-3.41Zm-6.42-1.57-1.06,3.34L141.05,279l1.28-3.27ZM140.8,264.3l-3.21-1.91,1.88-3,3,1.81Zm-1.52,10.17-1.48,3.18-3.15-1.59,1.67-3.08ZM134.5,260.3l-3-2.25,2.19-2.74,2.83,2.14Zm-1,11-1.85,3-2.93-1.94,2-2.87Zm-4.8-15.66-2.73-2.55,2.46-2.5L131,253ZM128,267.49l-2.17,2.76L123.14,268l2.3-2.65Zm-7.38-6.75,2.35,2.37-2.43,2.53-2.47-2.49Zm-1.84,9.8,2.25,2.64-2.57,2.39L116,272.7Zm-3.9,20.54-2.13-2.64,2.83-2.08,1.93,2.38Zm5,4.61-2.62-2.18,2.38-2.57,2.33,1.95Zm1.28-17.47,2.36-2.6,2.67,2.22-2.13,2.79Zm4.64,20.92-3.06-1.56,1.77-3,2.69,1.37Zm1.35-16.35,1.88-3,3,1.72-1.61,3.12Zm5.23,18.3-3.35-.77,1-3.36,2.94.68Zm5-13.58-3.56-1.27,1.32-3.25,3.26,1.17Zm7.36,1.6-3.71-.64.74-3.43,3.42.59Zm7.05-4.12c-18.16-1.88-30.3-13.54-35.94-20.36.12-.65.24-1.29.36-1.94,5.16,6.54,17.69,19.43,37,20.92Zm2.8-15L151,268.89l1.14-3.32,3.37,1.05Zm7.33,1.57-3.69-.67.73-3.43,3.48.63Zm8.17-5c-25.5-3-42-18.83-49.47-27.8.12-.63.25-1.27.37-1.91,7,8.68,23.83,25.65,50.45,28.35Zm7.17-17.28-3.55-.57.65-3.45,3.37.54Zm7.16.59-3.59-.2.29-3.5,3.41.19Z" />
	<path d="M110.27,396.44v-.68a2.62,2.62,0,0,1-2,.84,2.07,2.07,0,0,1-2.15-2.06,2,2,0,0,1,2.15-2,2.6,2.6,0,0,1,2,.8v-.93c0-.72-.61-1.16-1.46-1.16a2.49,2.49,0,0,0-1.84.8l-.57-.94a3.64,3.64,0,0,1,2.61-1c1.39,0,2.6.58,2.6,2.24v4.13Zm0-1.42v-1a1.85,1.85,0,0,0-1.48-.64,1.14,1.14,0,1,0,0,2.24A1.86,1.86,0,0,0,110.27,395Z" />
	<path d="M119.6,396.44v-5h-1v-1.17h1v-.35a1.92,1.92,0,0,1,2-2.15,2.29,2.29,0,0,1,1.09.23l-.3,1a1,1,0,0,0-.54-.14c-.54,0-.86.35-.86,1v.35h1.26v1.17H121v5Zm3.49-7.82a.84.84,0,1,1,.84.84A.84.84,0,0,1,123.09,388.62Zm.15,7.82v-6.22h1.35v6.22Z" />
	<path d="M127.64,396.44v-8.59H129v8.59Z" />
	<path d="M139.67,396.44v-4.06c0-.67-.3-1.12-1-1.12a1.85,1.85,0,0,0-1.44.82v4.35h-1.35v-4.06c0-.67-.28-1.12-1-1.12a1.91,1.91,0,0,0-1.44.82v4.35H132v-6.22h1.35v.84a2.76,2.76,0,0,1,2-1,1.63,1.63,0,0,1,1.7,1.13,2.62,2.62,0,0,1,2.11-1.13,1.64,1.64,0,0,1,1.79,1.88v4.5Z" />
	<path d="M148.67,396.44v-8.59H150v3.23a2.46,2.46,0,0,1,2-1c1.61,0,2.77,1.25,2.77,3.26s-1.17,3.27-2.77,3.27a2.52,2.52,0,0,1-2-1v.85Zm3-1a2.1,2.1,0,0,0,0-4.14,2,2,0,0,0-1.61.84v2.47A2,2,0,0,0,151.63,395.4Z" />
	<path d="M157.38,397.67a1.42,1.42,0,0,0,.51.1.85.85,0,0,0,.9-.54l.31-.71-2.56-6.3H158l1.82,4.66,1.82-4.66h1.44l-3,7.34a2.07,2.07,0,0,1-2.13,1.4,3.73,3.73,0,0,1-.76-.09Z" />
	<path d="M169.86,396.44v-8.59h1.51v8.59Z" />
	<path d="M173.92,395.62l.62-1a3.2,3.2,0,0,0,2.1.86c.81,0,1.24-.33,1.24-.82,0-1.22-3.76-.35-3.76-2.74,0-1,.88-1.88,2.45-1.88a3.55,3.55,0,0,1,2.41.86l-.57,1a2.54,2.54,0,0,0-1.84-.75c-.71,0-1.15.33-1.15.77,0,1.1,3.76.27,3.76,2.74,0,1.11-.91,1.94-2.59,1.94A3.77,3.77,0,0,1,173.92,395.62Z" />
	<path d="M185.62,396.44v-.68a2.62,2.62,0,0,1-2,.84,2.07,2.07,0,0,1-2.15-2.06,2,2,0,0,1,2.15-2,2.6,2.6,0,0,1,2,.8v-.93c0-.72-.61-1.16-1.46-1.16a2.49,2.49,0,0,0-1.84.8l-.57-.94a3.64,3.64,0,0,1,2.61-1c1.39,0,2.6.58,2.6,2.24v4.13Zm0-1.42v-1a1.85,1.85,0,0,0-1.48-.64,1.14,1.14,0,1,0,0,2.24A1.86,1.86,0,0,0,185.62,395Z" />
	<path d="M193.83,396.44v-.68a2.62,2.62,0,0,1-2,.84,2.07,2.07,0,0,1-2.15-2.06,2,2,0,0,1,2.15-2,2.6,2.6,0,0,1,2,.8v-.93c0-.72-.61-1.16-1.46-1.16a2.49,2.49,0,0,0-1.84.8l-.57-.94a3.64,3.64,0,0,1,2.61-1c1.39,0,2.6.58,2.6,2.24v4.13Zm0-1.42v-1a1.85,1.85,0,0,0-1.48-.64,1.14,1.14,0,1,0,0,2.24A1.86,1.86,0,0,0,193.83,395Z" />
	<path d="M197.85,393.32a3.12,3.12,0,0,1,3.21-3.26,2.77,2.77,0,0,1,2.38,1.11l-.89.81a1.65,1.65,0,0,0-1.43-.72,2.08,2.08,0,0,0,0,4.14,1.67,1.67,0,0,0,1.43-.75l.89.84a2.81,2.81,0,0,1-2.38,1.11A3.13,3.13,0,0,1,197.85,393.32Z" />
	<path d="M216.56,396.44l-4.48-6.14v6.14h-1.51v-8.59h1.55l4.39,6v-6H218v8.59Z" />
	<path d="M221,398l.63-1a2.45,2.45,0,0,0,2,.8,1.65,1.65,0,0,0,1.84-1.74v-.71a2.5,2.5,0,0,1-2,1c-1.58,0-2.76-1.15-2.76-3.19s1.15-3.19,2.76-3.19a2.45,2.45,0,0,1,2,1v-.86h1.35v5.9c0,2.24-1.67,2.85-3.19,2.85A3.56,3.56,0,0,1,221,398Zm4.46-3.62v-2.33a2.07,2.07,0,0,0-1.6-.82,2,2,0,0,0,0,4A2.07,2.07,0,0,0,225.47,394.42Z" />
</svg>
