<svg xmlns="http://www.w3.org/2000/svg" viewBox="61 45 154 203">
	<style>
		svg{
		fill:orange;
		cursor:pointer;
		}
	</style>
	<path d="M140.67,116.44a5.06,5.06,0,1,0-1.46,7A5.06,5.06,0,0,0,140.67,116.44Zm-7,2.43,3.62-2.37.59.9-3.62,2.37Zm2,3.06L135,121l3.62-2.37.59.9Z" />
	<path d="M176.08,155.3a5,5,0,1,0-.6,7A5,5,0,0,0,176.08,155.3Zm-4.42,4.16-2-.72,1.63-1.38,1.63-1.38.38,2.1.38,2.1Z" />
	<path d="M159.56,75.73a3.21,3.21,0,0,1-.72-.08.75.75,0,0,1-.56-.9.74.74,0,0,1,.9-.56,1.94,1.94,0,0,0,2.08-1,4.39,4.39,0,0,0,.26-.8,6.31,6.31,0,0,1,.31-1A2.17,2.17,0,0,1,164.09,70a.75.75,0,1,1-.29,1.47c-.17,0-.46.22-.6.55a4.94,4.94,0,0,0-.23.74,5.76,5.76,0,0,1-.36,1.07A3.42,3.42,0,0,1,159.56,75.73Z" />
	<circle cx="124.66" cy="70.56" r="2.29" transform="translate(17.04 165.1) rotate(-70.81)" />
	<circle cx="70.96" cy="72.02" r="1.46" transform="translate(-20.38 115.37) rotate(-70.81)" />
	<circle cx="194.99" cy="80.55" r="1.46" transform="translate(54.83 238.23) rotate(-70.81)" />
	<path d="M182.25,148.63a4.66,4.66,0,0,1-1.25-.18,7,7,0,0,1-4.72-5.14,5.52,5.52,0,0,1,1.39-4.8l-1.8-2.19c-3,.58-12,1.27-19.45-8.83a14.6,14.6,0,0,1-3.14-8.63,11.88,11.88,0,0,1,3.09-7.94c3.28-3.72,8.64-5.66,12.76-4.63a17.8,17.8,0,0,1,7.88,4.77,20.47,20.47,0,0,1,5.93,11.61,18.21,18.21,0,0,1-1.29,9.5l1.85,1.72a4.85,4.85,0,0,1,2.49-1.35,4.58,4.58,0,0,1,3.91,1.28c2.3,2,3.35,3.82,3.19,5.56a4,4,0,0,1-2.17,3.09,7.43,7.43,0,0,1-3.62,1,4.49,4.49,0,0,0-.61.06c0,1.05-.23,2.2-1.81,3.93h0A3.45,3.45,0,0,1,182.25,148.63Zm-5.33-15.74,4.94,6-1.23.95a2.93,2.93,0,0,0-1.41,2.91,4,4,0,0,0,2.59,2.82c.28.08.64.13.83-.07,1-1.15,1-1.57,1-1.94a2.49,2.49,0,0,1,.94-2.22,4,4,0,0,1,2.49-.8,4.46,4.46,0,0,0,2.29-.64c.44-.26.68-.52.7-.77,0-.51-.5-1.57-2.17-3a1.78,1.78,0,0,0-1.41-.59c-.74.13-1.41,1.09-1.53,1.32l-.93,1.7-6-5.63.48-1a15.46,15.46,0,0,0,1.47-8.82,17.45,17.45,0,0,0-5.08-9.89,15,15,0,0,0-6.49-4c-3-.76-7.24.82-9.77,3.7a9,9,0,0,0-2.34,6,11.69,11.69,0,0,0,2.56,6.86c7.72,10.53,17,7.54,17.11,7.51Z" />
	<circle cx="171.51" cy="129.11" r="1.57" transform="translate(17.91 279.08) rotate(-81.29)" />
	<path d="M166.32,127.46a1,1,0,0,1-.6-.2c-7.36-5.58-5.47-10.91-5.39-11.13a1,1,0,0,1,1.88.69c-.06.19-1.36,4.24,4.72,8.85a1,1,0,0,1-.6,1.8Z" />
	<rect x="199.73" y="150.85" width="1.34" height="5.35" transform="translate(-0.61 0.81) rotate(-0.23)" />
	<rect x="196.53" y="150.86" width="1.34" height="5.35" transform="translate(-0.62 0.8) rotate(-0.23)" />
	<path d="M207.45,153.25l-4.22-2.36a.24.24,0,0,0-.25,0,.25.25,0,0,0-.12.22l.06,4.84a.25.25,0,0,0,.13.21.24.24,0,0,0,.12,0,.24.24,0,0,0,.13,0l4.16-2.48a.25.25,0,0,0,.12-.22A.25.25,0,0,0,207.45,153.25Z" />
	<path d="M145.22,91.16a1.5,1.5,0,0,1-.85-2.74l4.76-3.26a1.5,1.5,0,1,1,1.7,2.48l-4.76,3.26A1.49,1.49,0,0,1,145.22,91.16Z" />
	<path d="M90.41,128.94a1.5,1.5,0,0,1-.85-2.74l16.61-11.37a1.5,1.5,0,0,1,1.7,2.48L91.26,128.68A1.49,1.49,0,0,1,90.41,128.94Z" />
	<path d="M132.29,104.35a5.76,5.76,0,0,1-1.19-.13,6,6,0,0,1-3.7-2.49h0a5.79,5.79,0,0,1,1.36-8.06,5.53,5.53,0,0,1,4.31-.84,6,6,0,0,1,4.69,6.85,5.52,5.52,0,0,1-5.46,4.68ZM129,100.6a4,4,0,0,0,2.46,1.66,3.53,3.53,0,0,0,4.26-2.92,4,4,0,0,0-3.12-4.56,3.53,3.53,0,0,0-2.77.53,3.79,3.79,0,0,0-.83,5.28Z" />
	<path d="M143.57,100.09a1.5,1.5,0,0,1-1.24-.65l-7.4-10.81a1.5,1.5,0,1,1,2.48-1.7l7.4,10.81a1.5,1.5,0,0,1-1.24,2.35Z" />
	<path d="M148.3,97a1.5,1.5,0,0,1-1.24-.65l-7.4-10.81a1.5,1.5,0,0,1,2.48-1.7l7.4,10.81A1.5,1.5,0,0,1,148.3,97Z" />
	<path d="M110.73,123a1.5,1.5,0,0,1-1.24-.65l-7.4-10.81a1.5,1.5,0,0,1,2.48-1.7l7.4,10.81a1.5,1.5,0,0,1-1.24,2.35Z" />
	<path d="M113.91,119.53a1,1,0,0,1-.83-.44l-6.69-9.77a1,1,0,0,1,.75-1.56l11.81-.91a.94.94,0,0,1,.9.43,1,1,0,0,1,.08,1L114.81,119a1,1,0,0,1-.83.57ZM109,109.62l4.73,6.91,3.62-7.55Z" />
	<path d="M121.66,112.59a1,1,0,0,1-.83-.44l-5.52-8.07a1,1,0,0,1,.26-1.39l8.07-5.52a1,1,0,0,1,1.39.26l5.52,8.07a1,1,0,0,1-.26,1.39l-8.07,5.52A1,1,0,0,1,121.66,112.59Zm-4.13-8.81,4.39,6.41,6.42-4.39-4.39-6.41Z" />
	<path d="M81.85,132.91c-2.19-1.32-5-5.35-7.1-6.75-5.91-3.88-8.2-3.54-13.54-5.51,1.46-2.21.78-2.76.93-5.43,2.09-1.6,5.24.64,7.05,1.78A31.58,31.58,0,0,1,81.85,132.91Z" />
	<path d="M93.76,104.4a5.47,5.47,0,1,0-3.62,6.83A5.47,5.47,0,0,0,93.76,104.4Zm-6.57,4.13L86,104.66l3.87-1.19,1.19,3.87Z" />
	<path d="M193.88,178.73a5.07,5.07,0,0,0-1.76-3,20.47,20.47,0,0,0-7.65-4.69,20,20,0,0,0-4.36-.92l-.19,0a16.32,16.32,0,0,0-3-.11c-.69.06-2.41.26-2.84.89s-.41,1.57.58,1.56A18.91,18.91,0,0,1,189.09,180a3.4,3.4,0,0,0,2,1.6l.25,0A2.17,2.17,0,0,0,193,181,2.83,2.83,0,0,0,193.88,178.73Z" />
	<path d="M109.31,89.8l-.21,0a1,1,0,0,1-.76-1.19c1.15-5.28,2.05-10.78-.65-14.84-2-3-5.41-4.47-9-6-1.22-.53-2.44-1.06-3.6-1.65-5.82-3-12.5-9.84-13.41-16.78a11.2,11.2,0,0,1,4-10.12,1,1,0,1,1,1.33,1.49A9.16,9.16,0,0,0,83.63,49c.79,6,6.88,12.49,12.33,15.25,1.13.57,2.31,1.09,3.5,1.6,3.73,1.62,7.58,3.29,9.89,6.77,3.14,4.71,2.19,10.67.94,16.38A1,1,0,0,1,109.31,89.8Z" />
	<path d="M171.33,96.81a1,1,0,0,1-1-.88c-.32-2.67,1.9-4.93,4.15-5.69a15.37,15.37,0,0,1,6.14-.4l.47,0c1.83.13,3.94.18,5.58-.7s2.65-2.51,3.84-4.56a1,1,0,1,1,1.73,1c-1.06,1.83-2.38,4.1-4.62,5.31s-4.55,1.08-6.67.94l-.47,0a13.64,13.64,0,0,0-5.35.3c-1.53.52-3,2-2.81,3.57a1,1,0,0,1-.88,1.11Z" />
	<path d="M74.73,93a1,1,0,0,1-.58-.19c-1.95-1.39-1.85-4.2-.74-6.26a18.63,18.63,0,0,1,1.22-1.9A10.1,10.1,0,0,0,76.12,82,4.69,4.69,0,0,0,74,76.67a1,1,0,0,1,1-1.76A6.68,6.68,0,0,1,78,82.62a11.78,11.78,0,0,1-1.76,3.16,16.49,16.49,0,0,0-1.09,1.69c-.68,1.27-.82,3,.14,3.69A1,1,0,0,1,74.73,93Z" />
	<path d="M210.84,131.18a5.44,5.44,0,0,1-2.42-.57,12.94,12.94,0,0,1-2.53-1.83,16.49,16.49,0,0,0-1.55-1.22c-1-.69-2.56-1.09-3.43-.35a1,1,0,1,1-1.3-1.53c1.67-1.42,4.13-.92,5.83.21a17.83,17.83,0,0,1,1.74,1.37,11.31,11.31,0,0,0,2.14,1.56,3,3,0,0,0,2.71.06v0a1.28,1.28,0,0,1,.41-1.44,1.17,1.17,0,0,1,1.39-.09,1.54,1.54,0,0,1,.36,2.12A3.7,3.7,0,0,1,210.84,131.18Z" />
	<path d="M138.32,162.52a65.33,65.33,0,0,1-11.73-1.12c-10.5-1.93-16.09-6.7-17.58-8.94a2.57,2.57,0,0,1-.57-1.93c.29-1.28,1.21-7.7,1.22-7.76a1,1,0,0,1,1.13-.85,1,1,0,0,1,.85,1.13c0,.27-.94,6.56-1.25,7.91.18.87,5,6.35,16.56,8.47,12.48,2.3,23.74.86,28-3.56.39-.67,1-5.56,1.29-9.67a1,1,0,1,1,2,.14c-.32,4.4-.9,9.86-1.83,10.89C153.11,160.68,146.49,162.52,138.32,162.52Z" />
	<path d="M138,156.71a47.64,47.64,0,0,1-8.47-.74c-9.87-1.8-17.21-5.24-19.64-9.19a5.23,5.23,0,0,1-.69-4.3c1.38-4.67,7.22-5.21,11.91-5.64,2-.19,4.84-.45,5.36-1.07,2.95-3.55,11.84-3.2,18.85-1.36,7.51,2,14.44,7.37,13.15,13.87C157.4,153.75,147.92,156.71,138,156.71Zm-2.67-20.64c-3.17,0-5.65.55-6.54,1.62-1.31,1.58-4,1.83-7.4,2.15-4,.37-8.5.78-9.31,3.5h0a2.27,2.27,0,0,0,.37,1.87c1.46,2.38,7,5.86,17.62,7.81,12.13,2.22,24.62-1.11,25.46-5.31.92-4.63-5-8.8-11-10.38A37.45,37.45,0,0,0,135.34,136.06Zm-24.69,6.84h0Z" />
	<path d="M161.43,171.26c-.47-3.74-4.68-9.12-8.33-12.76a16.68,16.68,0,0,1-1.93.93c3.5,3.39,7.87,8.79,8.28,12.08.14,1.09-.25,1.47-.37,1.59-3.45,3.43-12.61,7.83-17.41,7.71A52.32,52.32,0,0,0,96.6,160.47c-3.3-3.88-10.72-13.86-10.19-19.23a3.37,3.37,0,0,1,1.29-2.49c2.27-1.75,5.86-2.55,8.72-3a48.73,48.73,0,0,1,25.46,2.56,27.13,27.13,0,0,0,3.71-.53,11.65,11.65,0,0,0-1.18-.63,51,51,0,0,0-28.32-3.38c-3.29.57-7,1.42-9.61,3.43A5.34,5.34,0,0,0,84.41,141c-.74,7.55,10.52,20.57,11,21.12l.33.38.5,0a50.29,50.29,0,0,1,44.06,19.84l.27.4.48,0c.22,0,.45,0,.69,0,5.38,0,15-4.56,18.75-8.29A3.7,3.7,0,0,0,161.43,171.26Z" />
	<path d="M152.17,159a19.16,19.16,0,0,1-1.81.74l.22.22-2.84,2.61-1.68-1.7a55.85,55.85,0,0,1-19.27-.45c-.6-.11-1.16-.24-1.73-.36l-1.5,3.23L120,161.79,121.1,159a35,35,0,0,1-3.78-1.5l-.94,3.09-3.71-1,.88-3.76,1.3.35c-3.84-2.28-5.6-4.64-5.42-5.41.23-1,.84-5.13,1.1-7a3.27,3.27,0,0,1,.13-.89,4.33,4.33,0,0,1,1.11-1.85l-1.38-.22.47-3.83,4.19.66-.33,1.74c2.84-.91,6.52-1,9.29-1.36a50,50,0,0,0-27.77-3.31c-3,.51-6.69,1.33-9.17,3.24-6.84,5.28,9.08,23.55,9.08,23.55a50.92,50.92,0,0,1,45,20.29,13,13,0,0,0,3.81-.4l-.83-1.17,3.11-2.29,1.2,1.68-2,1.4c5-1.45,10.8-4.62,13.39-7.2S156.77,163.54,152.17,159ZM87.63,144.57a5.19,5.19,0,0,1-.35-2.77c0-.2.08-1.36.24-1.45l2.07-1.09,1.56,3.53A36.92,36.92,0,0,1,87.63,144.57Zm7,13.38-2.3-3.51,1.85-.23L95.28,158Zm.14-16.4-1-3.73L98,137l.52,3.82ZM101.23,158l-3.85,0-.08-3.86,4.09,0Zm1.1-21.39,4.28,0-.18,3.85-4,0Zm6.57,22.18-3.82-.52.4-3.84,4.06.55Zm21.35,8.2L127,165l1.87-3.37,3.52,2.13Zm6.08,4.66-3-2.44,2.35-3.06,3.17,2.62Zm5.35,5.49-2.58-2.84,2.76-2.69,2.76,3Zm8.62-11.56,3-2.38,2.5,3.5-3.24,2.09Zm5.31,8.93-1-2.26,3.45-1.72.89,1.92Z" />
	<circle cx="150.01" cy="143.69" r="1.74" transform="translate(-17.74 21.18) rotate(-7.63)" />
	<path d="M135.74,150.57c-6.14,0-11.19-1.13-15.39-3.45a1.5,1.5,0,0,1,1.45-2.63c4.09,2.25,9.18,3.25,15.52,3,2.6-.08,5.56-.38,7.76-2a1.5,1.5,0,0,1,1.75,2.44c-2.85,2-6.35,2.41-9.41,2.51Z" />
	<path d="M93.84,88.53a.75.75,0,0,1-.59-.28L91.45,86a.75.75,0,1,1,1.17-.94l1.81,2.26a.75.75,0,0,1-.59,1.22Z" />
	<path d="M187.76,109.36a.75.75,0,0,1,0-1.5l3.09-.14a.83.83,0,0,1,.78.72.75.75,0,0,1-.72.78l-3.09.14Z" />
	<path d="M84.1,247.06c-3.63,0-7.76-1.22-12.06-4.77-8.5-7-6.11-17.74-4-27.2.35-1.57.69-3.1,1-4.56,1.13-5.94,2.21-11.9,3.29-17.85l1.6-8.8c.83-4.54,1.81-9.18,2.75-13.67a277.16,277.16,0,0,0,4.82-27.5,1,1,0,0,1,1.09-.89,1,1,0,0,1,.9,1.09s-.39,4.6,3.62,11.32c3.77,6.33,12.28,15.9,31.4,25.49.22.11,22.21,10.76,38.11-.54a1,1,0,0,1,1.29,1.52L97.53,241.34C97.46,241.41,91.93,247.06,84.1,247.06Zm-1.5-97.6c-1.06,7.1-2.55,14.22-4,21.16-.94,4.48-1.91,9.11-2.74,13.62L74.26,193c-1.08,6-2.16,11.92-3.29,17.86-.28,1.49-.63,3-1,4.63-2,8.9-4.23,19,3.33,25.22,12.14,10,22.36-.36,22.79-.8l55.52-55.8c-15.71,6.27-33.22-2.22-34.05-2.63C93.1,169.24,85.15,156.84,82.61,149.47Z" />
	<path d="M157.15,180c-16.59,11.78-39.14.61-39.14.61-37.56-18.84-35.56-37.79-35.56-37.8-1,9.9-3.21,19.86-5.28,29.73l1.09-1.34,1.27,2.19-2.9,1.8c-.61,3-1.21,5.93-1.75,8.87L77,186.18l-2.85,2,0-.15-2.09,11.43L74,201.87l-2.66,2.29-.07-.27c-.4,2.17-.79,4.34-1.2,6.5l.48-1.09,1.86,2-2.9,1.84c-.94,4.35-2.14,9.09-2.38,13.64l.84-1.51,1.54,2.13-2.42,1.43c.08,4.77,1.46,9.22,5.62,12.66,7.46,6.16,14.29,5,18.77,2.83l.13-2.8,2.89.38L93.81,243a18.43,18.43,0,0,0,3-2.39l7.72-7.76-.42.19.18-3.5,3.19.35h0l4.5-4.52-1.65.62.37-3.49,3.3.23-.9,1.52,9.07-9.12-.86.49.31-3.49,2.55.19-2,2.81,8.6-8.65-.76.28.42-3.48,2.52.28-2.18,2.93,12.93-13-.07-3.49,2.94-.1-.73,1.45Zm-33.81,7.29,3.3.89-.83,3.41-3.47-.94Zm3.45,15.49-.57,3.46-3.69-.69.72-3.43ZM116.9,185l3.19,1.23-1.17,3.3-3.35-1.29Zm-.62,15.33,3.46,1-.87,3.4-3.62-1Zm-5.56-18.25,3.05,1.53-1.5,3.17-3.21-1.61Zm-1.2,15.82,3.35,1.3-1.19,3.3-3.51-1.36Zm-4.68-19.31,2.9,1.81-1.79,3-3-1.9Zm1.4,17.85-1.51,3.17-3.35-1.7,1.67-3.08Zm-7-21.86,2.74,2.07L100,179.49l-2.86-2.16ZM99.95,193l-1.83,3L95,194l2-2.89Zm-5.86-22.91,2.56,2.29-2.28,2.66-2.66-2.38ZM94,189l-2.13,2.78L89,189.39l2.28-2.67Zm-2.42-21.26-2.49,2.47-2.46-2.58,2.59-2.37Zm-3,16.61-2.42,2.54-2.65-2.68,2.56-2.4ZM87,162.66l-2.68,2.26-2.25-2.78L84.83,160Zm-6.15-5.12.51-2.49,1.47,2.21-2.14,2.5Zm.68,18.77,2.2,2.8L81,181.37l-2.33-3ZM79.17,189l2.32,2.67L78.91,194l-2.45-2.82Zm23.94,22.2-3.42-1.54,1.53-3.16,3.23,1.45Zm4.33,10.89-.6,3.46-3.46-.73.84-3.41ZM101,220.48,100,223.83l-3.34-1.18,1.28-3.27ZM96.37,207.9,93.16,206,95,203l3,1.81Zm-1.52,10.17-1.48,3.18-3.15-1.59,1.67-3.08ZM90.07,203.9l-3-2.25,2.19-2.74L92.11,201Zm-1,11-1.85,3-2.93-1.94,2-2.87Zm-4.8-15.66L81.5,196.7,84,194.2l2.6,2.43Zm-.64,11.85-2.17,2.76-2.71-2.24L81,209Zm-7.38-6.75,2.35,2.37-2.43,2.53-2.47-2.49Zm-1.84,9.8,2.25,2.64-2.57,2.39-2.45-2.87Zm-3.9,20.54L68.33,232,71.16,230l1.93,2.38Zm5,4.61-2.62-2.18,2.38-2.57,2.33,1.95Zm1.28-17.47,2.36-2.6,2.67,2.22-2.13,2.79Zm4.64,20.92-3.06-1.56,1.77-3,2.69,1.37Zm1.35-16.35,1.88-3,3,1.72L86,228.26ZM88,244.69l-3.35-.77,1-3.36,2.94.68Zm5-13.58-3.56-1.27,1.32-3.25L94,227.76Zm7.36,1.6-3.71-.64.74-3.43,3.42.59Zm7.05-4.12c-18.16-1.88-30.3-13.54-35.94-20.36.12-.65.24-1.29.36-1.94,5.16,6.54,17.69,19.43,37,20.92Zm2.8-15-3.57-1.11,1.14-3.32,3.37,1.05Zm7.33,1.57-3.69-.67.73-3.43,3.48.63Zm8.17-5c-25.5-3-42-18.83-49.47-27.8.12-.63.25-1.27.37-1.91,7,8.68,23.83,25.65,50.45,28.35Zm7.17-17.28-3.55-.57.65-3.45,3.37.54Zm7.16.59-3.59-.2.29-3.5,3.41.19Z" />
</svg>
