<svg id="圖層_1" data-name="圖層 1" xmlns="http://www.w3.org/2000/svg" viewBox="0 0 184.45 95.06"><title>2</title><path d="M34.35,30h9.52a10.44,10.44,0,0,0,3.25-.44,6.22,6.22,0,0,0,2.22-1.22,4.71,4.71,0,0,0,1.28-1.86A6.58,6.58,0,0,0,51,24.06,5.26,5.26,0,0,0,50.22,21a5.21,5.21,0,0,0-2.35-1.82,4.84,4.84,0,0,0,2.3-1.75,5.25,5.25,0,0,0,.78-3A6.59,6.59,0,0,0,50.53,12a4.7,4.7,0,0,0-1.28-1.86A6.05,6.05,0,0,0,47,9a10.84,10.84,0,0,0-3.25-.43H34.35a1.56,1.56,0,0,0-1.78,1.75V28.22A1.56,1.56,0,0,0,34.35,30ZM36.26,12.6c0-.25.14-.38.41-.38H43.9a3.46,3.46,0,0,1,2.49.76,2.72,2.72,0,0,1,.78,2q0,2.57-3.3,2.57H36.26Zm0,8.09H44q3.3,0,3.3,2.76a2.67,2.67,0,0,1-.79,2.06,3.62,3.62,0,0,1-2.51.73h-7.3c-.28,0-.41-.12-.41-.35Z"/><path d="M57,27.87a6.48,6.48,0,0,0,2.46,1.54,10.53,10.53,0,0,0,3.63.56h8.54V26.22H63.29a6.66,6.66,0,0,1-2.11-.29,3.55,3.55,0,0,1-1.35-.78A2.69,2.69,0,0,1,59.12,24a5,5,0,0,1-.21-1.44v-14H55.17v14a9.82,9.82,0,0,0,.43,3A5.86,5.86,0,0,0,57,27.87Z"/><path d="M100.78,18.92a5.48,5.48,0,0,0,2.14,1.43,9.68,9.68,0,0,0,3.52.54h5a5.14,5.14,0,0,1,1.63.22,2.77,2.77,0,0,1,1,.59,2,2,0,0,1,.54.86,3.16,3.16,0,0,1,.16,1,2.66,2.66,0,0,1-.71,1.92,3,3,0,0,1-2.24.75H99.79V30h11.93a9,9,0,0,0,3.12-.48A5.66,5.66,0,0,0,117,28.17a5.1,5.1,0,0,0,1.2-2,7.91,7.91,0,0,0,.38-2.51,9.14,9.14,0,0,0-.3-2.29,4.82,4.82,0,0,0-1.11-2,5.87,5.87,0,0,0-2.21-1.44,9.87,9.87,0,0,0-3.59-.56h-5a4.94,4.94,0,0,1-1.55-.21,2.5,2.5,0,0,1-1-.57,2,2,0,0,1-.51-.83,3.05,3.05,0,0,1-.14-.94,2.57,2.57,0,0,1,.67-1.82,2.79,2.79,0,0,1,2.13-.71h11V8.54H106.07A8.92,8.92,0,0,0,103,9a5.49,5.49,0,0,0-2.08,1.28,4.92,4.92,0,0,0-1.17,2,7.89,7.89,0,0,0-.37,2.46,8.42,8.42,0,0,0,.3,2.22A5,5,0,0,0,100.78,18.92Z"/><path d="M84.46,30A10.87,10.87,0,1,0,73.59,19.09,10.87,10.87,0,0,0,84.46,30ZM81.14,19.09V14.45l4,2.32,4,2.32-4,2.32-4,2.32Z"/><path d="M123.93,30h2.62c.38,0,.56-.22.56-.68v-16c0-.21.07-.31.21-.31h.23a.32.32,0,0,1,.33.25L133.09,27a9.69,9.69,0,0,0,.63,1.4,4.13,4.13,0,0,0,.69.94,2.11,2.11,0,0,0,.85.52,3.66,3.66,0,0,0,1.12.15h1.23a3.65,3.65,0,0,0,1.12-.15,2.13,2.13,0,0,0,.85-.52,4.29,4.29,0,0,0,.69-.94,10.3,10.3,0,0,0,.63-1.4l5.2-13.76a.32.32,0,0,1,.33-.25h.23c.14,0,.21.1.21.31v16c0,.45.19.68.56.68h2.62q.59,0,.59-.68V11.65a4.85,4.85,0,0,0-.46-2.47,2,2,0,0,0-1.8-.72h-2.75a4.28,4.28,0,0,0-1,.09,1.64,1.64,0,0,0-.71.35,2.49,2.49,0,0,0-.55.71,7.88,7.88,0,0,0-.5,1.18l-5.35,14.74a.37.37,0,0,1-.36.28h-.31a.36.36,0,0,1-.36-.28L131.18,10.8a8.18,8.18,0,0,0-.5-1.18,2.5,2.5,0,0,0-.55-.71,1.68,1.68,0,0,0-.72-.35,4.48,4.48,0,0,0-1-.09h-2.8a2,2,0,0,0-1.82.72,4.81,4.81,0,0,0-.47,2.47V29.29Q123.34,30,123.93,30Z"/><rect x="31.66" y="59.69" width="120.7" height="1.01"/><polygon points="109.25 47.72 112.13 47.72 110.69 43.91 109.25 47.72"/><path d="M94,43.74H92.45v5.54H94a2.63,2.63,0,0,0,2.75-2.77A2.59,2.59,0,0,0,94,43.74Z"/><path d="M31.66,37.6V56.19H152.4V37.6ZM77.6,50.51h-1.4V44.33l-2.45,6.18h-.6l-2.46-6.18v6.18h-1.4v-8h2L73.44,48l2.17-5.5h2Zm9.6-6.77H83.11V45.8h4V47h-4v2.23H87.2v1.24H81.71v-8H87.2ZM94,50.51H91v-8h3a4,4,0,1,1,0,8Zm9.35,0H102v-8h1.4Zm9.73,0L112.52,49h-3.67l-.59,1.55h-1.6l3.15-8h1.75l3.15,8Z"/><path d="M35.84,76.11v-.68a2.62,2.62,0,0,1-2,.84,2.07,2.07,0,0,1-2.15-2.06,2,2,0,0,1,2.15-2,2.6,2.6,0,0,1,2,.8V72c0-.72-.61-1.16-1.46-1.16a2.49,2.49,0,0,0-1.84.8L32,70.74a3.64,3.64,0,0,1,2.61-1c1.39,0,2.6.58,2.6,2.24v4.13Zm0-1.42v-1a1.85,1.85,0,0,0-1.48-.64,1.14,1.14,0,1,0,0,2.24A1.86,1.86,0,0,0,35.84,74.69Z"/><path d="M45.17,76.11v-5h-1V69.89h1v-.35a1.92,1.92,0,0,1,2-2.15,2.29,2.29,0,0,1,1.09.23l-.3,1a1,1,0,0,0-.54-.14c-.54,0-.86.35-.86,1v.35h1.26v1.17H46.53v5Zm3.49-7.82a.84.84,0,1,1,.84.84A.84.84,0,0,1,48.66,68.29Zm.15,7.82V69.89h1.35v6.22Z"/><path d="M53.21,76.11V67.52h1.35v8.59Z"/><path d="M65.24,76.11V72c0-.67-.3-1.12-1-1.12a1.85,1.85,0,0,0-1.44.82v4.35H61.42V72c0-.67-.28-1.12-1-1.12a1.91,1.91,0,0,0-1.44.82v4.35H57.6V69.89H59v.84a2.76,2.76,0,0,1,2-1,1.63,1.63,0,0,1,1.7,1.13,2.62,2.62,0,0,1,2.11-1.13,1.64,1.64,0,0,1,1.79,1.88v4.5Z"/><path d="M74.24,76.11V67.52H75.6v3.23a2.46,2.46,0,0,1,2-1c1.61,0,2.77,1.25,2.77,3.26s-1.17,3.27-2.77,3.27a2.52,2.52,0,0,1-2-1v.85Zm3-1a2.1,2.1,0,0,0,0-4.14,2,2,0,0,0-1.61.84v2.47A2,2,0,0,0,77.21,75.06Z"/><path d="M83,77.33a1.42,1.42,0,0,0,.51.1.85.85,0,0,0,.9-.54l.31-.71-2.56-6.3h1.46l1.82,4.66,1.82-4.66h1.44l-3,7.34a2.07,2.07,0,0,1-2.13,1.4,3.73,3.73,0,0,1-.76-.09Z"/><path d="M95.43,76.11V67.52h1.51v8.59Z"/><path d="M99.49,75.28l.62-1a3.2,3.2,0,0,0,2.1.86c.81,0,1.24-.33,1.24-.82,0-1.22-3.76-.35-3.76-2.74,0-1,.88-1.88,2.45-1.88a3.55,3.55,0,0,1,2.41.86l-.57,1a2.54,2.54,0,0,0-1.84-.75c-.71,0-1.15.33-1.15.77,0,1.1,3.76.27,3.76,2.74,0,1.11-.91,1.94-2.59,1.94A3.77,3.77,0,0,1,99.49,75.28Z"/><path d="M111.2,76.11v-.68a2.62,2.62,0,0,1-2,.84A2.07,2.07,0,0,1,107,74.2a2,2,0,0,1,2.15-2,2.6,2.6,0,0,1,2,.8V72c0-.72-.61-1.16-1.46-1.16a2.49,2.49,0,0,0-1.84.8l-.57-.94a3.64,3.64,0,0,1,2.61-1c1.39,0,2.6.58,2.6,2.24v4.13Zm0-1.42v-1a1.85,1.85,0,0,0-1.48-.64,1.14,1.14,0,1,0,0,2.24A1.86,1.86,0,0,0,111.2,74.69Z"/><path d="M119.4,76.11v-.68a2.62,2.62,0,0,1-2,.84,2.07,2.07,0,0,1-2.15-2.06,2,2,0,0,1,2.15-2,2.6,2.6,0,0,1,2,.8V72c0-.72-.61-1.16-1.46-1.16a2.49,2.49,0,0,0-1.84.8l-.57-.94a3.64,3.64,0,0,1,2.61-1c1.39,0,2.6.58,2.6,2.24v4.13Zm0-1.42v-1a1.85,1.85,0,0,0-1.48-.64,1.14,1.14,0,1,0,0,2.24A1.86,1.86,0,0,0,119.4,74.69Z"/><path d="M123.42,73a3.12,3.12,0,0,1,3.21-3.26A2.77,2.77,0,0,1,129,70.84l-.89.81a1.65,1.65,0,0,0-1.43-.72,2.08,2.08,0,0,0,0,4.14,1.67,1.67,0,0,0,1.43-.75l.89.84a2.81,2.81,0,0,1-2.38,1.11A3.13,3.13,0,0,1,123.42,73Z"/><path d="M142.13,76.11,137.65,70v6.14h-1.51V67.52h1.55l4.39,6v-6h1.51v8.59Z"/><path d="M146.59,77.7l.63-1a2.45,2.45,0,0,0,2,.8A1.65,1.65,0,0,0,151,75.78v-.71a2.5,2.5,0,0,1-2,1c-1.58,0-2.76-1.15-2.76-3.19s1.15-3.19,2.76-3.19a2.45,2.45,0,0,1,2,1v-.86h1.35v5.9c0,2.24-1.67,2.85-3.19,2.85A3.56,3.56,0,0,1,146.59,77.7ZM151,74.08V71.75a2.07,2.07,0,0,0-1.6-.82,2,2,0,0,0,0,4A2.07,2.07,0,0,0,151,74.08Z"/></svg>