<?xml version="1.0" encoding="utf-8"?>
<!-- Generator: Adobe Illustrator 16.0.0, SVG Export Plug-In . SVG Version: 6.00 Build 0) -->
<!DOCTYPE svg PUBLIC "-//W3C//DTD SVG 1.1//EN" "http://www.w3.org/Graphics/SVG/1.1/DTD/svg11.dtd">
<svg version="1.1" id="Layer_1" xmlns="http://www.w3.org/2000/svg" xmlns:xlink="http://www.w3.org/1999/xlink" x="0px" y="0px" width="50px" height="50px" viewBox="174.5 -105.5 50 50" enable-background="new 174.5 -105.5 50 50" xml:space="preserve">
	<path fill="gold" d="M199.5-98.75c-10.063,0-18.25,8.187-18.25,18.25s8.187,18.25,18.25,18.25s18.25-8.187,18.25-18.25
	S209.563-98.75,199.5-98.75z M209.314-91.762c0.044,0.036,0.095,0.062,0.152,0.062c0.033,0,0.066-0.006,0.099-0.02
	c0.126-0.051,0.186-0.199,0.137-0.326c-0.071-0.185-0.182-0.382-0.29-0.579c0.013-0.002,0.025-0.002,0.039-0.005
	c0.016-0.004,0.03-0.009,0.045-0.016c0.351,0.678,0.518,1.007,0.599,1.21c-0.001-0.001-0.003-0.001-0.005-0.002
	c-0.066-0.033-0.145-0.035-0.214-0.004c-0.067,0.03-0.118,0.089-0.138,0.16c-0.077-0.072-0.187-0.189-0.367-0.389
	c-0.021-0.023-0.047-0.042-0.074-0.056C209.305-91.738,209.309-91.75,209.314-91.762z M188.447-92.778
	c0.059,0.008,0.116-0.006,0.165-0.038c0.025-0.016,0.054-0.029,0.086-0.039c0.01,0.052,0.036,0.1,0.077,0.138
	c0.036,0.033,0.08,0.054,0.126,0.062c-0.02,0.022-0.04,0.046-0.063,0.071c-0.055,0.063-0.075,0.148-0.055,0.229
	c0.021,0.081,0.082,0.146,0.161,0.172l0.011,0.004c-2.258,2.06-3.291,3.003-3.832,3.537
	C185.993-90.174,187.11-91.573,188.447-92.778z M182.968-80.5c0-1.144,0.12-2.275,0.352-3.378c0.043,0.034,0.097,0.053,0.153,0.053
	h0.174c0.007,0,0.015,0,0.021,0c-0.089,0.359-0.167,0.678-0.236,0.999c-0.006,0.026-0.004,0.086-0.001,0.112
	c0.05,0.472,0.117,1.118,0.2,1.597c0.012,0.07,0.053,0.131,0.113,0.169c2.271,1.432,3.452,4.015,3.689,4.58
	c-0.694,1.137-0.937,2.06-0.74,2.819c0.22,0.851,0.94,1.29,1.508,1.605c0.057,0.225,0.118,0.446,0.184,0.665
	c0.011,0.038,0.031,0.073,0.059,0.102c0.015,0.015,1.416,1.462,2.748,1.923c0.426,1.981,1.576,3.508,3.422,4.538
	c0.005,0.005,0.01,0.011,0.015,0.016C187.757-66.803,182.968-73.135,182.968-80.5z M214.191-73.779
	c-0.1,0.354-0.217,0.716-0.335,1.058c-0.396,0.629-0.719,1.303-1.032,1.955l-0.042,0.097c-3.115,4.196-8.081,6.702-13.282,6.702
	c-0.714,0-1.435-0.047-2.146-0.14c-0.009-0.04-0.028-0.078-0.058-0.11l-0.085-0.102c-0.022-0.027-0.051-0.05-0.083-0.066
	l-0.285-0.14c-0.185-0.274-0.183-0.286-0.141-0.482c0-0.003,0.001-0.007,0.002-0.011c0.007,0,0.014,0,0.021,0l0.172,0.002
	c0.059,0.001,0.176-0.045,0.221-0.125c0.046-0.079,0.045-0.176-0.001-0.254c-0.006-0.009-0.012-0.019-0.018-0.028
	c0.024-0.008,0.05-0.017,0.075-0.024c0.225-0.073,0.457-0.148,0.672-0.29c0.058,0.017,0.117,0.033,0.166,0.046
	c0.074,0.02,0.154,0.004,0.215-0.041l0.287-0.215c0.063-0.046,0.1-0.119,0.101-0.196c0.011-0.66,0.013-0.781-0.075-1.092
	c1.811-1.101,2.047-1.273,1.729-2.065c1.086-1.187,1.131-1.26,1.18-2.101c0.006-0.098,0.011-0.223,0.013-0.317
	c0.003-0.136-0.104-0.25-0.24-0.255c-0.107-0.004-2.641-0.122-4.164-1.579c-0.051-0.048-0.113-0.078-0.195-0.068
	c-0.227,0.018-0.594,0.046-1.147,0.434l-0.091-0.063l0.19-0.201c0.072-0.077,0.089-0.19,0.041-0.285
	c-0.64-1.266-0.835-1.403-1.465-1.487c-0.772-0.106-0.772-0.106-0.999-0.845c-0.012-0.038-0.032-0.073-0.061-0.102l-0.222-0.228
	c-0.638-0.621-1.411-0.921-2.23-1.239c-0.037-0.014-0.075-0.018-0.116-0.016l-0.443,0.045c-0.411-0.247-0.606-0.367-0.996-0.614
	c-0.098-0.063-0.225-0.049-0.308,0.031c-0.255,0.248-0.372,0.297-0.478,0.297c-0.227,0-0.611-0.253-1.24-0.675
	c-0.123-0.291-0.514-0.799-1.07-1.158l-0.065-0.163c0.026-0.239,0.057-0.476,0.091-0.712c0.244-0.292,0.306-0.418,0.406-0.792
	c0.02-0.071,0.006-0.147-0.036-0.208s-0.109-0.1-0.183-0.106c-0.404-0.033-0.669,0.136-0.987,0.488
	c-0.06-0.027-0.117-0.054-0.175-0.082c-0.054-0.246-0.162-0.848-0.096-1.488c0.231-0.129,0.317-0.274,0.751-1.084
	c0.79,0.028,0.819,0.049,1.328,0.397c0.077,0.053,0.176,0.06,0.26,0.014c0.069-0.037,0.148-0.081,0.233-0.128l0.063,0.203
	c0.03,0.098,0.117,0.167,0.22,0.175c0.116,0.01,0.188,0.013,0.27,0.002c-0.017,0.3,0.008,0.596,0.031,0.884
	c0.022,0.279,0.044,0.542,0.031,0.805c-0.005,0.099,0.05,0.192,0.139,0.236c0.04,0.02,0.084,0.024,0.127,0.022
	c-0.047,0.011-0.096,0.018-0.147,0.041c-0.15-0.357-0.428-0.436-0.605-0.437c-0.22-0.004-0.35-0.017-0.556-0.047
	c-0.099-0.014-0.195,0.029-0.248,0.113c-0.053,0.083-0.052,0.19,0.003,0.273c0.127,0.19,0.377,0.467,1.086,0.673h0.001
	c0.263,0.448,0.37,0.49,1.013,0.643c0.019,0.004,0.038,0.007,0.058,0.007c0.061,0,0.12-0.022,0.167-0.063l0.174-0.155
	c0.063-0.057,0.099-0.141,0.085-0.226c-0.015-0.085-0.066-0.154-0.146-0.187c-0.021-0.014-0.072-0.066-0.206-0.242
	c-0.189-0.253-0.314-0.42-0.557-0.42c-0.026,0-0.055,0.015-0.08,0.019c0.036-0.008,0.073-0.019,0.104-0.044l0.794-0.666
	c0.086-0.072,0.113-0.193,0.066-0.295l-0.21-0.462c0.035-0.121,0.068-0.224,0.118-0.342c0.031-0.007,0.061-0.02,0.088-0.038
	c0.157-0.108,0.333-0.188,0.52-0.273c0.165-0.075,0.336-0.152,0.5-0.253c0.224,0.005,0.414,0.041,0.627,0.08
	c0.091,0.018,0.181-0.016,0.238-0.086c0.69-0.836,0.728-0.881,0.91-1.061c1.172-0.518,1.209-0.528,4.346-1.385
	c0.11-0.03,0.187-0.133,0.184-0.249c-0.004-0.115-0.085-0.213-0.198-0.237c-0.137-0.029-0.187-0.04-0.252-0.098l0.23-0.249
	c0.06-0.064,0.082-0.155,0.058-0.239c0-0.002-0.001-0.004-0.001-0.006c0.12-0.005,0.253-0.007,0.393-0.006
	c0.018,0.047,0.046,0.091,0.092,0.121c0.293,0.24,0.458,0.424,0.481,0.479c0.034,0.078,0.107,0.137,0.191,0.15
	c0.015,0.002,0.028,0.003,0.043,0.003c0.069,0,0.138-0.028,0.185-0.081l0.374-0.42c0.061-0.068,0.079-0.163,0.05-0.248
	s-0.104-0.148-0.192-0.165l-0.109-0.02c0.203-0.145,0.499-0.394,1.022-0.838c0.083-0.07,0.111-0.184,0.07-0.284
	c-0.04-0.1-0.146-0.167-0.247-0.156c-0.179,0.011-0.301,0.027-0.432,0.062c0,0,0.001-0.001,0.001-0.001
	c0.034-0.073,0.031-0.157-0.008-0.227l-0.2-0.371c0.044-0.131,0.063-0.167,0.172-0.367c0.032-0.06,0.039-0.13,0.019-0.195
	c-0.021-0.064-0.066-0.118-0.127-0.148c-0.333-0.165-0.624-0.209-1.048-0.134c-0.453-0.763-0.514-0.833-0.88-0.9
	c-0.071-0.012-0.145,0.006-0.201,0.051c-0.057,0.045-0.091,0.113-0.094,0.185c-0.003,0.074-0.006,0.158-0.01,0.242l-0.264-0.024
	c-0.083-0.012-0.16,0.024-0.213,0.084c-0.335,0.384-0.713,0.745-1.078,1.094c-0.276,0.264-0.56,0.535-0.829,0.82
	c-0.178-0.408-0.315-1.088-0.362-1.522l1.099-0.564c1.017-0.641,1.438-0.906,1.673-0.906c0.083,0,0.181,0.039,0.324,0.104
	c-0.029,0.042-0.053,0.09-0.052,0.146c0.003,0.127,0.101,0.232,0.228,0.244c0.188,0.017,0.386,0.032,0.585,0.046l0.22,0.417
	c0.044,0.083,0.129,0.134,0.222,0.134c0.106-0.007,0.182-0.053,0.224-0.138c0.305-0.61,0.48-0.641,0.513-0.641
	c0.097,0,0.258,0.166,0.318,0.228c0.047,0.048,0.113,0.073,0.181,0.073c0.072-0.012,0.137-0.031,0.185-0.081
	c0.102-0.107,0.312-0.33,0.362-0.672l0.009-0.083c0.009-0.085-0.019-0.17-0.086-0.223c-0.042-0.033-0.089-0.051-0.139-0.054
	c-0.007-0.086,0-0.21,0.003-0.26c0.004-0.086-0.035-0.168-0.105-0.218c-0.185-0.131-0.183-0.172-0.18-0.235
	c0.006-0.132-0.092-0.245-0.223-0.259c-0.021-0.002-0.088-0.02-0.293-0.108c-0.136-0.06-0.235-0.092-0.321-0.104l-0.068-0.146
	c-0.031-0.066-0.09-0.116-0.16-0.135c-0.065-0.018-0.141-0.008-0.201,0.03c-0.005-0.006-0.01-0.011-0.015-0.017
	c-0.068-0.069-0.179-0.09-0.271-0.058c-0.143,0.049-0.227,0.081-0.298,0.114c-0.002-0.075,0.002-0.141-0.004-0.224
	c-0.004-0.058-0.03-0.106-0.068-0.143c0.025-0.02,0.047-0.028,0.073-0.05c0.05-0.044,0.08-0.106,0.085-0.172
	c0.005-0.084,0.009-0.198,0.011-0.284c0.002-0.087-0.05-0.164-0.122-0.211c-0.001,0-0.002,0-0.003,0
	c0.038-0.026,0.084-0.06,0.161-0.122c0.141-0.111,0.153-0.187,0.201-0.468c0.017-0.096-0.042-0.181-0.122-0.236
	c-0.08-0.056-0.204-0.048-0.287,0.002c-0.584,0.345-0.584,0.345-0.688,0.384c-0.12,0.044-0.188,0.173-0.155,0.297
	c0.032,0.125,0.148,0.203,0.281,0.184c0.099-0.016,0.167-0.026,0.222-0.036c0.012,0.013,0.028,0.021,0.042,0.03
	c-0.107,0.052-0.186,0.092-0.186,0.092c-0.049,0.025-0.101,0.089-0.124,0.139c-0.014,0.029-0.034,0.06-0.05,0.09
	c-0.053-0.038-0.11-0.069-0.174-0.063c0.029-0.063,0.023-0.139-0.003-0.207c-0.032-0.084-0.123-0.146-0.212-0.159
	c-0.06-0.009-0.122-0.01-0.184-0.01c-0.001,0-0.002,0-0.004,0c-0.021,0-0.041,0-0.06,0c-0.068-0.065-0.168-0.091-0.266-0.054
	c-0.297,0.115-0.422,0.171-0.534,0.24c-0.094,0.057-0.139,0.169-0.111,0.275l0.019,0.072c0.022,0.088,0.091,0.155,0.176,0.179
	c0,0,0,0,0,0c0.004,0.032,0.022,0.058,0.038,0.085c-0.036,0.01-0.07,0.02-0.115,0.036l-0.069-0.062
	c-0.009-0.179-0.049-0.256-0.217-0.41c-0.082-0.075-0.201-0.082-0.296-0.024c-0.068,0.041-0.111,0.115-0.119,0.193
	c-0.005,0.015-0.033,0.052-0.051,0.075c-0.059,0.077-0.139,0.182-0.15,0.342c-0.005,0.073,0.006,0.137,0.015,0.188
	c0.004,0.024,0.011,0.061,0.007,0.077c-0.001,0.004-0.002,0.008-0.003,0.012c-0.095,0.021-0.208,0.053-0.295,0.091
	c-0.063,0.028-0.113,0.082-0.136,0.147c-0.022,0.066-0.017,0.138,0.016,0.199c0.064,0.122,0.16,0.216,0.273,0.288l-0.119,0.054
	c-0.02-0.012-0.041-0.021-0.063-0.027c-0.045-0.012-0.097-0.024-0.149-0.036l-0.023-0.187c-0.011-0.081-0.061-0.15-0.132-0.188
	c-0.042-0.022-0.09-0.034-0.135-0.028c-0.023-0.017-0.051-0.029-0.079-0.037c-0.022-0.006-0.045-0.012-0.067-0.019l0.027-0.069
	c0.025-0.064,0.023-0.136-0.006-0.198c-0.029-0.062-0.083-0.11-0.148-0.131c-0.142-0.046-0.274-0.095-0.403-0.143
	c-0.058-0.022-0.122-0.022-0.182,0.002c-0.135,0.054-0.222,0.083-0.289,0.095l0.109-0.163c0.046-0.066,0.056-0.151,0.028-0.228
	c-0.028-0.076-0.092-0.134-0.17-0.155c-0.142-0.038-0.287-0.076-0.572-0.037c-0.006-0.024-0.016-0.047-0.028-0.069
	c0.046-0.072,0.052-0.164,0.015-0.241c-0.02-0.042-0.05-0.076-0.087-0.101c0.019-0.073,0.004-0.153-0.046-0.216
	c-0.077-0.097-0.214-0.124-0.318-0.063c-0.192,0.108-0.229,0.128-0.579,0.297c-0.01-0.006-0.02-0.011-0.03-0.015
	c2.637-1.673,5.65-2.55,8.808-2.55c2.97,0,5.869,0.798,8.415,2.313c-0.047,0.027-0.062,0.03-0.08,0.03
	c-0.091,0-0.314-0.08-0.688-0.212c-0.086-0.031-0.185-0.011-0.253,0.051c-0.085,0.078-0.185,0.15-0.306,0.221
	c-0.063,0.038-0.104,0.104-0.117,0.177c-0.012,0.073,0.012,0.151,0.06,0.207c0.645,0.75,0.724,0.842,1.021,1.388
	c-0.097,0.515,0.045,0.629,0.851,1.283c0.088,0.071,0.232,0.059,0.324-0.006l0.097-0.072c0.036,0.021,0.078,0.032,0.121,0.032h0.021
	c-0.014,0.025-0.022,0.053-0.027,0.083c-0.033,0.239,0.004,0.309,0.359,0.742c-0.011,0.013-0.022,0.024-0.033,0.033
	c-0.06,0.047-0.094,0.119-0.094,0.195l0.001,0.18c-0.239-0.089-0.291-0.118-0.488-0.227c-0.052-0.042-0.062-0.056-0.073-0.071
	l-0.416-0.575c-0.078-0.104-0.224-0.131-0.332-0.062c-0.099,0.062-0.218,0.158-0.305,0.245c-0.061,0.062-0.085,0.149-0.065,0.233
	c0.024,0.105,0.065,0.22,0.185,0.364c-0.201,0.105-0.326,0.338-0.434,0.574c-0.033,0.073-0.004,0.201,0.034,0.271l0.242-0.08
	l-0.195,0.161c0,0.001,0.048,0.092,0.049,0.093l0.242-0.078l-0.196,0.159c0,0,0.046,0.086,0.047,0.086c0,0,0.047,0.091,0.048,0.092
	l0.096-0.03c-0.003,0.025-0.005,0.05-0.007,0.075l-0.045,0.036c0,0.001,0.047,0.091,0.048,0.093l0.023,0.044
	c0.044,0.083,0.13,0.133,0.221,0.133c0.018,0,0.036-0.002,0.054-0.006c0.109-0.024,0.189-0.119,0.196-0.231
	c0.014-0.257,0.066-0.274,0.114-0.289c0.049-0.016,0.08-0.06,0.11-0.1l0.001,0.022c0.002,0.067,0.03,0.13,0.079,0.176
	c0.039,0.038,0.084,0.082,0.128,0.126c-0.011,0.063,0.003,0.128,0.039,0.182c0.04,0.06,0.104,0.1,0.177,0.108
	c0.124,0.015,0.14,0.017,0.647,0.79c-0.182,0.029-0.497,0.061-1.067,0.094c-0.083,0.005-0.158,0.051-0.2,0.122
	c-0.043,0.071-0.047,0.159-0.011,0.234c0.109,0.232,0.231,0.457,0.354,0.682c0.089,0.164,0.178,0.327,0.262,0.494
	c-0.057,0.068-0.074,0.162-0.044,0.246l0.126,0.359c0.002,0.006,0.041,0.11,0.044,0.116c0.021,0.063,0.066,0.115,0.127,0.145
	c0.06,0.03,0.129,0.033,0.191,0.011c1.11-0.388,1.158-0.406,1.719-0.652c0.125-0.055,0.183-0.201,0.13-0.327
	c-0.09-0.21-0.182-0.419-0.278-0.625c0.153-0.213,0.191-0.456,0.227-0.674c0.027-0.179,0.053-0.337,0.134-0.456
	c0.048-0.019,0.094-0.038,0.14-0.057c0.57,0.583,0.766,0.763,1.078,0.763c0.071,0,0.141-0.012,0.212-0.031
	c0.061,0.09,0.102,0.142,0.232,0.31c0.08,0.102,0.221,0.12,0.33,0.05c0.108-0.07,0.143-0.217,0.083-0.332
	c-0.038-0.072-0.073-0.139-0.115-0.213c0.163,0.131,0.351,0.283,0.567,0.458c0.069,0.055,0.163,0.07,0.248,0.039
	c0.084-0.033,0.144-0.108,0.156-0.197c0.01-0.066,0.013-0.128,0.01-0.188c0.008,0.006,0.015,0.012,0.022,0.018
	c0.078,0.063,0.188,0.072,0.276,0.024c0.014-0.007,0.025-0.016,0.036-0.024c0.134,0.277,0.261,0.559,0.38,0.845
	c-0.142,0.059-0.378,0.155-0.772,0.316c-0.1,0.041-0.162,0.14-0.154,0.248c0.008,0.132,0.007,0.198-0.035,0.358
	c-0.303-0.16-0.751-0.548-1.091-0.907c-0.08-0.084-0.214-0.101-0.311-0.042c-0.391,0.223-1.203,0.687-2.373,1.006
	c-0.085,0.023-0.151,0.09-0.175,0.176c-0.014,0.052-0.011,0.106,0.008,0.154c-0.018,0.004-0.037,0.01-0.039,0.01l0.01,0.256
	l-0.111-0.231c-0.08,0.019-0.151,0.088-0.181,0.165c-0.494,1.268-0.92,2.363-2.292,4.319c-0.074,0.106-0.055,0.251,0.044,0.335
	l0.369,0.31c0.226,1.63,0.222,1.64-0.015,2.155c-0.046,0.1-0.021,0.217,0.062,0.291c2.291,2.046,2.291,2.046,2.838,2.207
	c0.105,0.03,0.222-0.012,0.281-0.106l0.26-0.411c0.654-0.155,1.276-0.328,1.854-0.515c0.471-0.149,0.843-0.267,1.068-0.267
	c0.125,0,0.158,0.036,0.174,0.054C214.421-76.697,214.315-75.388,214.191-73.779z M191.869-87.198
	c-0.032-0.105-0.157-0.175-0.268-0.175l-0.21-0.006c-0.03,0-0.063,0.001-0.097,0.003c0.016-0.033,0.023-0.069,0.023-0.106
	c0-0.087-0.045-0.167-0.119-0.213c-0.061-0.037-0.116-0.082-0.172-0.126c-0.034-0.027-0.069-0.054-0.105-0.082
	c0.279-0.219,0.37-0.161,0.802-0.014c0.123,0.458,0.247,0.816,0.496,1.078c-0.096,0.061-0.188,0.126-0.277,0.191
	c-0.204,0.146-0.389,0.277-0.592,0.343c0.056-0.119,0.106-0.249,0.13-0.395l0.319-0.218
	C191.891-86.98,191.901-87.093,191.869-87.198z M194.939-92.473c0.314-0.07,0.65-0.246,0.987-0.521l0.098-0.079
	c0.025-0.021,0.038-0.05,0.054-0.078c-0.456,0.841-0.502,0.852-0.764,0.852c-0.03,0-0.062-0.001-0.095-0.002
	c-0.033-0.094-0.118-0.159-0.217-0.167C194.977-92.469,194.961-92.471,194.939-92.473z M196.105-93.2
	c0.007-0.025,0.004-0.052,0.002-0.079h0.001c0.013,0.002,0.024,0.003,0.037,0.003C196.132-93.249,196.119-93.225,196.105-93.2z
	 M196.758-92.806l0.006,0.035c0.019,0.11,0.107,0.194,0.218,0.207c0.01,0.001,0.02,0.002,0.029,0.002
	c0.033,0,0.062-0.015,0.091-0.027c0.01,0.02,0.015,0.03,0.027,0.054c-0.001,0-0.002,0-0.003,0c-0.179,0.085-0.289,0.131-0.383,0.163
	c-0.023-0.132-0.019-0.275-0.013-0.432c0.006-0.155,0.011-0.31-0.009-0.464c-0.012-0.09-0.124-0.188-0.208-0.222
	c-0.024-0.009-0.049,0.001-0.073-0.001c0.023-0.028,0.047-0.057,0.069-0.086c0.04,0.042,0.087,0.074,0.146,0.082
	c0.011,0.001,0.063,0.005,0.074,0.005c0.016,0,0.034-0.011,0.05-0.012C196.734-93.356,196.713-93.152,196.758-92.806z
	 M197.587-92.067l-0.118-0.327c-0.004-0.011-0.018-0.014-0.022-0.023c0.006-0.002,0.012,0.001,0.017-0.001
	c0.016-0.008,0.052-0.021,0.113-0.021c0.144,0,0.278,0.063,0.346,0.126c-0.228,0.281-0.372,0.484-0.535,0.75
	c-0.055,0.005-0.104,0.018-0.156,0.027c0.1-0.091,0.201-0.182,0.288-0.26C197.595-91.864,197.621-91.972,197.587-92.067z
	 M208.312-89.828l-0.086-0.182c0.031,0.022,0.048,0.039,0.082,0.062L208.312-89.828z M191.338-79.581
	c0.066,0.102,0.049,0.237-0.04,0.319l-0.403,0.372c-0.047,0.043-0.107,0.066-0.17,0.066c-0.006,0-0.013,0-0.02-0.001
	c-0.068-0.005-0.133-0.039-0.176-0.093c-0.302-0.378-0.33-0.403-0.39-0.403c-0.04,0-0.088,0.005-0.147,0.011
	c-0.122,0.01-0.234-0.067-0.266-0.186c-0.15-0.582-0.114-0.801,0.398-0.952l0.098-0.024c0.061-0.016,0.125-0.007,0.181,0.024
	l0.526,0.291c0.036,0.02,0.066,0.048,0.089,0.083L191.338-79.581z M204.378-92.503c-0.729,0.95-1.806,1.651-2.36,1.875
	c-0.003,0.104-0.027,0.215-0.105,0.308c-0.056,0.065-0.16,0.145-0.342,0.151c-0.003,0-0.022,0-0.025,0
	c-0.248,0-0.416-0.138-0.539-0.239c-0.071-0.058-0.132-0.108-0.188-0.122c-0.099-0.025-0.173-0.108-0.187-0.21
	c-0.011-0.083-0.049-0.173-0.09-0.269c-0.07-0.166-0.151-0.354-0.131-0.586c0.003-0.033,0.012-0.065,0.027-0.095l0.053-0.101
	c0.078-0.154,0.159-0.332,0.242-0.526c-0.057-0.071-0.117-0.145-0.169-0.205c-0.052-0.061-0.071-0.143-0.053-0.221
	c0.036-0.151,0.047-0.233,0.045-0.304c-0.053-0.067-0.106-0.143-0.16-0.219c-0.094-0.132-0.189-0.269-0.284-0.356
	c-0.125-0.041-0.276-0.083-0.336-0.086c-0.061-0.003-0.11-0.034-0.152-0.074l-0.063,0.084c-0.041,0.054-0.102,0.09-0.169,0.099
	c-0.066,0.009-0.135-0.01-0.188-0.053c-0.011-0.008-0.02-0.016-0.027-0.022c-0.137,0.111-0.304,0.166-0.718,0.299
	c-0.025,0.008-0.053,0.013-0.08,0.013c-0.042,0-0.085-0.011-0.122-0.031c-0.147-0.082-0.204-0.11-0.234-0.114
	c-0.131-0.019-0.225-0.136-0.214-0.268s0.098-0.24,0.255-0.229c0.001,0,0.002,0,0.003,0c0.287,0,0.44-0.079,0.88-0.418
	c-0.089-0.146-0.133-0.253-0.16-0.397c-0.014-0.073,0.006-0.149,0.054-0.206s0.118-0.09,0.192-0.09c0.058,0,0.167-0.022,0.335-0.062
	c0.183-0.042,0.397-0.092,0.56-0.074c0.032-0.02,0.068-0.036,0.111-0.047c0.188-0.049,0.345,0.14,0.369,0.175
	c0.007,0.009,0.007,0.02,0.013,0.029c0.021-0.011,0.033-0.036,0.058-0.04c0.027-0.003,0.055-0.004,0.08,0
	c0.011-0.078,0.059-0.163,0.127-0.201c0.071-0.04,0.159-0.06,0.232-0.026c0.211,0.102,0.325,0.143,0.378,0.16
	c0.003-0.001,0.042,0,0.092,0c0.042,0,0.092-0.001,0.145-0.005c0.061-0.004,0.109,0.005,0.152,0.016
	c0.023-0.054,0.061-0.105,0.114-0.15c0.063-0.052,0.14-0.08,0.223-0.08c0.019,0,0.098,0.012,0.116,0.016
	c0.015-0.048,0.075-0.104,0.165-0.135l0.142-0.043c0.061-0.017,0.15-0.018,0.207,0.012l0.362,0.186
	c0.052,0.026,0.092,0.069,0.114,0.121c0.078-0.059,0.186-0.067,0.271-0.021c0.081,0.044,0.131,0.128,0.131,0.219
	c0.052,0.141,0.262,0.642,0.728,1.059c0.032,0.029,0.057,0.067,0.07,0.108l0.025,0.077c0.025,0.078,0.053,0.165,0.079,0.235
	c0.033,0.09,0.013,0.191-0.055,0.26c-0.008,0.008-0.016,0.016-0.024,0.023c0.032,0.046,0.065,0.092,0.098,0.139
	c0.054,0.078,0.059,0.179,0.014,0.262c-0.021,0.036-0.049,0.066-0.082,0.088c0.011,0.014,0.021,0.028,0.028,0.044
	C204.452-92.684,204.438-92.58,204.378-92.503z M205.912-91.966c0,0.003,0.002,0.062,0.002,0.064c0,0.382-0.262,0.562-1.002,0.685
	c-0.014,0.002-0.027,0.003-0.041,0.003c-0.051,0-0.102-0.016-0.144-0.045l-0.089-0.063c-0.102-0.072-0.216-0.152-0.308-0.214
	c-0.069-0.047-0.11-0.126-0.109-0.21s0.044-0.162,0.114-0.207c0.177-0.114,0.35-0.182,0.596-0.234
	c0.288-0.053,0.504-0.057,0.768-0.017C205.818-92.187,205.908-92.086,205.912-91.966z" />
</svg>
