<svg height="506pt" viewBox="0 -1 506.00128 506" xmlns="http://www.w3.org/2000/svg">
	<path d="m484.398438 300c-18 0-35.597657-7.199219-48.398438-20-12.800781 12.800781-30 20-48.398438 20h-171.601562c-22 0-40-18-40-40v-220c0-22 18-40 40-40h220c22 0 40 18 40 40v176.800781c0 24 10 46.398438 26.398438 62.800781 7.601562 7.597657 2.402343 20.800782-8.398438 20.800782h-9.601562zm0 0" fill="gold" />
	<path d="m399.199219 203.601562-60-160c-1.597657-4.402343-6-7.601562-11.199219-7.601562s-9.601562 3.199219-11.199219 7.601562l-52.800781 136.398438h100.800781l12 32.402344c2 4.796875 6.398438 7.597656 11.199219 7.597656 1.601562 0 2.800781-.398438 4.398438-.800781 6-2.398438 9.203124-9.199219 6.800781-15.597657zm-98.800781-47.601562 27.601562-74 27.601562 74zm0 0" fill="rgba(0, 0, 0, 0)" />
	<path d="m436 492c0 6.628906-5.371094 12-12 12s-12-5.371094-12-12c0-6.625 5.371094-12 12-12s12 5.375 12 12zm0 0" fill="gold" />
	<path d="m372 492h-51.601562c-18 0-35.597657-7.199219-48.398438-20-12.800781 12.800781-30 20-48.398438 20h-171.601562c-22 0-40-18-40-40v-220c0-22 18-40 40-40h220c22 0 40 18 40 40v176.800781c0 37.601563 24 71.199219 60 83.199219zm0 0" fill="rgba(0, 0, 0, 0)" />
	<g fill="gold">
		<path d="m218.398438 329.601562c0-.402343.402343-.800781.402343-.800781 1.597657-6.398437-2-12.800781-8.402343-14.800781-5.597657-1.597656-11.597657 1.199219-14 6.402344-1.199219-.402344-2.398438-.402344-3.597657-.800782-12.800781-2.402343-26.800781-2-40.800781.800782 0-9.203125.398438-17.601563.800781-25.203125h82.800781c6.796876 0 12-5.199219 12-12 0-6.796875-5.203124-12-12-12h-80.800781c1.597657-11.597657 2.800781-18.398438 2.800781-18.398438 1.199219-6.398437-2.800781-12.800781-9.203124-14-6.398438-1.199219-12.796876 2.800781-14 9.199219-.398438 1.199219-2 9.601562-3.597657 23.601562h-36.402343c-6.796876 0-12 5.199219-12 12 0 6.800782 5.203124 12 12 12h34.402343c-.800781 9.597657-.800781 20.800782-.800781 32.398438-8.800781 3.601562-16.800781 8-24.398438 13.601562-17.203124 12.800782-28.402343 30-30.402343 47.597657-1.597657 14 2.402343 27.601562 11.601562 38.800781 10.800781 13.199219 25.597657 18.800781 40.398438 18.800781 12.402343 0 24.800781-4 34.402343-11.199219 24.398438-18 41.597657-56 50.796876-81.199218 2 2 3.601562 4 5.203124 6.398437 15.597657 25.199219 3.597657 40-18 61.601563-1.203124 1.199218-2.800781 2.398437-4 4-4.800781 4.796875-4.800781 12.398437 0 16.796875 4.796876 4.800781 12.398438 4.800781 16.796876 0 1.203124-1.199219 2.402343-2.398438 3.601562-3.597657 18-18 48.800781-48 21.601562-91.199218-4-8-10-14-17.203124-18.800782zm-115.199219 82.398438c-5.199219-6-7.199219-13.199219-6.398438-20.800781 1.199219-10.796875 9.199219-22.398438 20.800781-31.199219 3.597657-2.398438 7.199219-4.800781 11.199219-6.800781 1.597657 20.800781 5.597657 42.800781 12.398438 64.800781-10.398438 5.601562-27.199219 7.199219-38-6zm57.601562-12.800781c-4.800781-18.398438-7.199219-36.796875-8.402343-54.398438 7.601562-1.601562 14.800781-2.800781 22-2.800781 4.800781 0 9.203124.402344 13.601562 1.199219h.800781c-6.402343 17.601562-16 39.601562-28 56zm0 0" />
		<path d="m371.199219 504h-51.199219c-21.199219 0-41.199219-8.398438-56.398438-23.199219-4-4-5.203124-10-2.402343-14.800781 4.402343-7.597656 14-8.398438 19.601562-2.398438 10 11.199219 25.199219 16 40 16h8.800781c-18.402343-18.402343-29.601562-43.601562-29.601562-71.199218v-176.402344c0-15.597656-12.398438-28-28-28h-220c-15.601562 0-28 12.402344-28 28v220c0 15.601562 12.398438 28 28 28h170.800781c6.398438 0 12.398438 4.800781 12.800781 11.601562.398438 6.800782-5.203124 12.398438-12 12.398438h-171.601562c-28.800781 0-52-23.199219-52-52v-220c0-28.800781 23.199219-52 52-52h212s60 28 60 26v202.800781c0 32.800781 20.800781 61.601563 51.601562 72 6.398438 2 10 9.601563 7.199219 16.398438-1.601562 4-6.402343 6.800781-11.601562 6.800781zm0 0" />
	</g>
</svg>
