<?xml version="1.0" encoding="UTF-8"?>
<svg width="48px" height="48px" viewBox="0 0 48 48" version="1.1" xmlns="http://www.w3.org/2000/svg" xmlns:xlink="http://www.w3.org/1999/xlink">
    <!-- Generator: Sketch 50.2 (55047) - http://www.bohemiancoding.com/sketch -->
    <title>Phone</title>
    <desc>Created with Sketch.</desc>
    <defs></defs>
    <g id="Phone" stroke="none" stroke-width="1" fill="none" fill-rule="evenodd">
        <g fill-rule="nonzero">
            <path d="M0,24 C0,10.7451654 10.7451654,0 24,0 C37.2548346,0 48,10.7451654 48,24 C48,37.2548346 37.2548346,48 24,48 C10.7451654,48 0,37.2548346 0,24 Z" id="back" fill="#6FD454"></path>
            <path d="M16.9714316,12.0489804 C17.2628651,12.0244902 17.5126652,12.0955118 17.6743006,12.3624551 C18.0367558,12.9502202 18.4016599,13.5379853 18.7469718,14.1404445 C19.1461623,14.8359665 19.5135155,15.5510806 19.9053589,16.2539497 C20.0057687,16.4425243 20.145363,16.6139558 20.2629159,16.7951834 C20.3706729,16.9666148 20.4735318,17.1429443 20.5739416,17.3143758 C20.7796594,17.7037702 20.7698633,18.0956135 20.4637357,18.4066392 C20.0278099,18.852361 19.5478018,19.2662457 19.0849368,19.6899263 C18.6979914,20.0450343 18.296352,20.3854483 17.9192027,20.7479034 C17.6253202,21.0319898 17.5494006,21.3870979 17.7477713,21.7617982 C18.0538989,22.3348691 18.3575775,22.90794 18.6930934,23.4687658 C19.9371962,25.5430867 21.5266109,27.3063819 23.5348082,28.6655886 C24.3086988,29.1921282 25.1144268,29.6745854 25.9275018,30.1350014 C26.6940454,30.5684781 26.992826,30.4950074 27.5879381,29.8313227 C28.1414169,29.2166184 28.6753034,28.592118 29.2263332,27.9725157 C29.3585804,27.8231254 29.5177667,27.6908782 29.672055,27.5635292 C29.9855298,27.2990349 30.3283927,27.2696466 30.6883988,27.4508742 C30.7888087,27.4998546 30.8965656,27.543937 30.9847304,27.6076115 C31.9398486,28.2908885 33.0076218,28.7733456 34.0166185,29.3537636 C34.5578522,29.6647893 35.0843918,29.9978562 35.6158293,30.3162289 C35.9023648,30.4852114 36.0174688,30.7325625 35.9978766,31.0729764 C35.9439982,32.0305437 35.7848118,32.9709678 35.228884,33.7791447 C34.996227,34.1146606 34.6656091,34.4085432 34.3325422,34.6460982 C33.4092613,35.2926398 32.3782234,35.6918302 31.2810619,35.9367323 C30.2843103,36.1595933 29.2900078,36.0787756 28.3348895,35.779995 C26.4907766,35.2118221 24.673603,34.5603825 23.0009215,33.573427 C21.4825285,32.6746362 20.1012806,31.5897199 18.8228915,30.3774544 C17.2040886,28.8370202 15.7591662,27.1569917 14.590983,25.2443062 C13.8293375,24.0026525 13.2856548,22.665487 12.7934015,21.3013822 C12.494621,20.4785111 12.2007385,19.662987 12.0684913,18.7911355 C11.916652,17.80418 12.0219599,16.8539598 12.3378836,15.9184338 C12.6219701,15.0735215 12.9770782,14.2653446 13.5134138,13.5428833 C13.9346454,12.9820574 14.461185,12.5706219 15.1420128,12.3869454 C15.6881445,12.2424531 16.2391742,12.1273491 16.787755,12 C16.8587766,12.0563275 16.9151041,12.0563275 16.9714316,12.0489804 Z" id="Shape" fill="#FFFFFF"></path>
        </g>
    </g>
</svg>