<?xml version="1.0" encoding="UTF-8"?>
<svg width="48px" height="48px" viewBox="0 0 48 48" version="1.1" xmlns="http://www.w3.org/2000/svg" xmlns:xlink="http://www.w3.org/1999/xlink">
	<!-- Generator: Sketch 50.2 (55047) - http://www.bohemiancoding.com/sketch -->
	<title>
		Youtube
	</title>
	<desc>
		Created with Sketch.
	</desc>
	<defs>
	</defs>
	<g id="Youtube" stroke="none" stroke-width="1" fill="none" fill-rule="evenodd">
		<g fill-rule="nonzero">
			<path d="M0,24 C0,10.7451654 10.7451654,0 24,0 C37.2548346,0 48,10.7451654 48,24 C48,37.2548346 37.2548346,48 24,48 C10.7451654,48 0,37.2548346 0,24 Z" id="back" fill="orange">
			</path>
			<path d="M36.2650182,18.0732194 C35.9706182,16.9422129 35.1031273,16.0515935 34.0016,15.749329 C32.0053818,15.2 24,15.2 24,15.2 C24,15.2 15.9946182,15.2 13.9982546,15.749329 C12.8967273,16.0515935 12.0292364,16.9422129 11.7348364,18.0732194 C11.2,20.1230387 11.2,24.4 11.2,24.4 C11.2,24.4 11.2,28.6768129 11.7348364,30.7267806 C12.0292364,31.8577871 12.8967273,32.7484065 13.9982546,33.0508194 C15.9946182,33.6 24,33.6 24,33.6 C24,33.6 32.0053818,33.6 34.0016,33.0508194 C35.1031273,32.7484065 35.9706182,31.8577871 36.2650182,30.7267806 C36.8,28.6768129 36.8,24.4 36.8,24.4 C36.8,24.4 36.8,20.1230387 36.2650182,18.0732194" id="Fill-1" fill="#222">
			</path>
			<polygon id="Fill-2" fill="orange" points="21.6 28.8 21.6 20.8 28 24.8001529">
			</polygon>
		</g>
	</g>
</svg>
